G04 #@! TF.GenerationSoftware,KiCad,Pcbnew,(2018-02-10 revision a04965c)-master*
G04 #@! TF.CreationDate,2018-05-21T22:46:27-05:00*
G04 #@! TF.ProjectId,passive_stereo_output,706173736976655F73746572656F5F6F,rev?*
G04 #@! TF.SameCoordinates,Original*
G04 #@! TF.FileFunction,Soldermask,Bot*
G04 #@! TF.FilePolarity,Negative*
%FSLAX46Y46*%
G04 Gerber Fmt 4.6, Leading zero omitted, Abs format (unit mm)*
G04 Created by KiCad (PCBNEW (2018-02-10 revision a04965c)-master) date Monday, May 21, 2018 at 10:46:27 PM*
%MOMM*%
%LPD*%
G01*
G04 APERTURE LIST*
%ADD10C,0.300000*%
%ADD11C,2.200000*%
%ADD12R,4.400000X4.400000*%
%ADD13C,3.400000*%
%ADD14C,2.550000*%
G04 APERTURE END LIST*
D10*
X6500000Y-19785714D02*
X6428571Y-19857142D01*
X6500000Y-19928571D01*
X6571428Y-19857142D01*
X6500000Y-19785714D01*
X6500000Y-19928571D01*
X6500000Y-19357142D02*
X6571428Y-18500000D01*
X6500000Y-18428571D01*
X6428571Y-18500000D01*
X6500000Y-19357142D01*
X6500000Y-18428571D01*
X7250000Y-107285714D02*
X7178571Y-107357142D01*
X7250000Y-107428571D01*
X7321428Y-107357142D01*
X7250000Y-107285714D01*
X7250000Y-107428571D01*
X7250000Y-106857142D02*
X7321428Y-106000000D01*
X7250000Y-105928571D01*
X7178571Y-106000000D01*
X7250000Y-106857142D01*
X7250000Y-105928571D01*
D11*
X2001900Y-85860380D03*
X4501900Y-85860380D03*
X7001900Y-85860380D03*
D12*
X101900Y-78860380D03*
X8901900Y-78860380D03*
D11*
X2001900Y-62235380D03*
X4501900Y-62235380D03*
X7001900Y-62235380D03*
D12*
X101900Y-55235380D03*
X8901900Y-55235380D03*
D13*
X4500000Y-102000000D03*
D14*
X4500000Y-106920000D03*
X4500000Y-98620000D03*
D11*
X4500000Y-95520000D03*
X4500000Y-37605000D03*
D14*
X4500000Y-34505000D03*
X4500000Y-26205000D03*
D13*
X4500000Y-31125000D03*
X4500000Y-7500000D03*
D14*
X4500000Y-2580000D03*
X4500000Y-10880000D03*
D11*
X4500000Y-13980000D03*
M02*
