G04 #@! TF.GenerationSoftware,KiCad,Pcbnew,(2018-02-10 revision a04965c)-master*
G04 #@! TF.CreationDate,2018-05-21T22:46:27-05:00*
G04 #@! TF.ProjectId,passive_stereo_output,706173736976655F73746572656F5F6F,rev?*
G04 #@! TF.SameCoordinates,Original*
G04 #@! TF.FileFunction,Legend,Bot*
G04 #@! TF.FilePolarity,Positive*
%FSLAX46Y46*%
G04 Gerber Fmt 4.6, Leading zero omitted, Abs format (unit mm)*
G04 Created by KiCad (PCBNEW (2018-02-10 revision a04965c)-master) date Monday, May 21, 2018 at 10:46:27 PM*
%MOMM*%
%LPD*%
G01*
G04 APERTURE LIST*
%ADD10C,0.125000*%
%ADD11C,0.010000*%
G04 APERTURE END LIST*
D10*
X7059523Y-88702380D02*
X7011904Y-88726190D01*
X6916666Y-88726190D01*
X6869047Y-88702380D01*
X6845238Y-88654761D01*
X6845238Y-88630952D01*
X6869047Y-88583333D01*
X6916666Y-88559523D01*
X6988095Y-88559523D01*
X7035714Y-88535714D01*
X7059523Y-88488095D01*
X7059523Y-88464285D01*
X7035714Y-88416666D01*
X6988095Y-88392857D01*
X6916666Y-88392857D01*
X6869047Y-88416666D01*
X6702380Y-88392857D02*
X6511904Y-88392857D01*
X6630952Y-88226190D02*
X6630952Y-88654761D01*
X6607142Y-88702380D01*
X6559523Y-88726190D01*
X6511904Y-88726190D01*
X6154761Y-88702380D02*
X6202380Y-88726190D01*
X6297619Y-88726190D01*
X6345238Y-88702380D01*
X6369047Y-88654761D01*
X6369047Y-88464285D01*
X6345238Y-88416666D01*
X6297619Y-88392857D01*
X6202380Y-88392857D01*
X6154761Y-88416666D01*
X6130952Y-88464285D01*
X6130952Y-88511904D01*
X6369047Y-88559523D01*
X5916666Y-88726190D02*
X5916666Y-88392857D01*
X5916666Y-88488095D02*
X5892857Y-88440476D01*
X5869047Y-88416666D01*
X5821428Y-88392857D01*
X5773809Y-88392857D01*
X5416666Y-88702380D02*
X5464285Y-88726190D01*
X5559523Y-88726190D01*
X5607142Y-88702380D01*
X5630952Y-88654761D01*
X5630952Y-88464285D01*
X5607142Y-88416666D01*
X5559523Y-88392857D01*
X5464285Y-88392857D01*
X5416666Y-88416666D01*
X5392857Y-88464285D01*
X5392857Y-88511904D01*
X5630952Y-88559523D01*
X5107142Y-88726190D02*
X5154761Y-88702380D01*
X5178571Y-88678571D01*
X5202380Y-88630952D01*
X5202380Y-88488095D01*
X5178571Y-88440476D01*
X5154761Y-88416666D01*
X5107142Y-88392857D01*
X5035714Y-88392857D01*
X4988095Y-88416666D01*
X4964285Y-88440476D01*
X4940476Y-88488095D01*
X4940476Y-88630952D01*
X4964285Y-88678571D01*
X4988095Y-88702380D01*
X5035714Y-88726190D01*
X5107142Y-88726190D01*
X4726190Y-88535714D02*
X4345238Y-88535714D01*
X4035714Y-88726190D02*
X4083333Y-88702380D01*
X4107142Y-88678571D01*
X4130952Y-88630952D01*
X4130952Y-88488095D01*
X4107142Y-88440476D01*
X4083333Y-88416666D01*
X4035714Y-88392857D01*
X3964285Y-88392857D01*
X3916666Y-88416666D01*
X3892857Y-88440476D01*
X3869047Y-88488095D01*
X3869047Y-88630952D01*
X3892857Y-88678571D01*
X3916666Y-88702380D01*
X3964285Y-88726190D01*
X4035714Y-88726190D01*
X3440476Y-88392857D02*
X3440476Y-88726190D01*
X3654761Y-88392857D02*
X3654761Y-88654761D01*
X3630952Y-88702380D01*
X3583333Y-88726190D01*
X3511904Y-88726190D01*
X3464285Y-88702380D01*
X3440476Y-88678571D01*
X3273809Y-88392857D02*
X3083333Y-88392857D01*
X3202380Y-88226190D02*
X3202380Y-88654761D01*
X3178571Y-88702380D01*
X3130952Y-88726190D01*
X3083333Y-88726190D01*
X2916666Y-88392857D02*
X2916666Y-88892857D01*
X2916666Y-88416666D02*
X2869047Y-88392857D01*
X2773809Y-88392857D01*
X2726190Y-88416666D01*
X2702380Y-88440476D01*
X2678571Y-88488095D01*
X2678571Y-88630952D01*
X2702380Y-88678571D01*
X2726190Y-88702380D01*
X2773809Y-88726190D01*
X2869047Y-88726190D01*
X2916666Y-88702380D01*
X2250000Y-88392857D02*
X2250000Y-88726190D01*
X2464285Y-88392857D02*
X2464285Y-88654761D01*
X2440476Y-88702380D01*
X2392857Y-88726190D01*
X2321428Y-88726190D01*
X2273809Y-88702380D01*
X2250000Y-88678571D01*
X2083333Y-88392857D02*
X1892857Y-88392857D01*
X2011904Y-88226190D02*
X2011904Y-88654761D01*
X1988095Y-88702380D01*
X1940476Y-88726190D01*
X1892857Y-88726190D01*
X6392857Y-89601190D02*
X6392857Y-89101190D01*
X6392857Y-89291666D02*
X6345238Y-89267857D01*
X6250000Y-89267857D01*
X6202380Y-89291666D01*
X6178571Y-89315476D01*
X6154761Y-89363095D01*
X6154761Y-89505952D01*
X6178571Y-89553571D01*
X6202380Y-89577380D01*
X6250000Y-89601190D01*
X6345238Y-89601190D01*
X6392857Y-89577380D01*
X5750000Y-89577380D02*
X5797619Y-89601190D01*
X5892857Y-89601190D01*
X5940476Y-89577380D01*
X5964285Y-89529761D01*
X5964285Y-89339285D01*
X5940476Y-89291666D01*
X5892857Y-89267857D01*
X5797619Y-89267857D01*
X5750000Y-89291666D01*
X5726190Y-89339285D01*
X5726190Y-89386904D01*
X5964285Y-89434523D01*
X5511904Y-89267857D02*
X5511904Y-89601190D01*
X5511904Y-89315476D02*
X5488095Y-89291666D01*
X5440476Y-89267857D01*
X5369047Y-89267857D01*
X5321428Y-89291666D01*
X5297619Y-89339285D01*
X5297619Y-89601190D01*
X4678571Y-89601190D02*
X4678571Y-89267857D01*
X4678571Y-89315476D02*
X4654761Y-89291666D01*
X4607142Y-89267857D01*
X4535714Y-89267857D01*
X4488095Y-89291666D01*
X4464285Y-89339285D01*
X4464285Y-89601190D01*
X4464285Y-89339285D02*
X4440476Y-89291666D01*
X4392857Y-89267857D01*
X4321428Y-89267857D01*
X4273809Y-89291666D01*
X4250000Y-89339285D01*
X4250000Y-89601190D01*
X3940476Y-89601190D02*
X3988095Y-89577380D01*
X4011904Y-89553571D01*
X4035714Y-89505952D01*
X4035714Y-89363095D01*
X4011904Y-89315476D01*
X3988095Y-89291666D01*
X3940476Y-89267857D01*
X3869047Y-89267857D01*
X3821428Y-89291666D01*
X3797619Y-89315476D01*
X3773809Y-89363095D01*
X3773809Y-89505952D01*
X3797619Y-89553571D01*
X3821428Y-89577380D01*
X3869047Y-89601190D01*
X3940476Y-89601190D01*
X3559523Y-89601190D02*
X3559523Y-89267857D01*
X3559523Y-89363095D02*
X3535714Y-89315476D01*
X3511904Y-89291666D01*
X3464285Y-89267857D01*
X3416666Y-89267857D01*
X3059523Y-89577380D02*
X3107142Y-89601190D01*
X3202380Y-89601190D01*
X3249999Y-89577380D01*
X3273809Y-89529761D01*
X3273809Y-89339285D01*
X3249999Y-89291666D01*
X3202380Y-89267857D01*
X3107142Y-89267857D01*
X3059523Y-89291666D01*
X3035714Y-89339285D01*
X3035714Y-89386904D01*
X3273809Y-89434523D01*
X2821428Y-89267857D02*
X2821428Y-89601190D01*
X2821428Y-89315476D02*
X2797619Y-89291666D01*
X2749999Y-89267857D01*
X2678571Y-89267857D01*
X2630952Y-89291666D01*
X2607142Y-89339285D01*
X2607142Y-89601190D01*
X5357142Y-90023809D02*
X5333333Y-90000000D01*
X5285714Y-89976190D01*
X5166666Y-89976190D01*
X5119047Y-90000000D01*
X5095238Y-90023809D01*
X5071428Y-90071428D01*
X5071428Y-90119047D01*
X5095238Y-90190476D01*
X5380952Y-90476190D01*
X5071428Y-90476190D01*
X4761904Y-89976190D02*
X4714285Y-89976190D01*
X4666666Y-90000000D01*
X4642857Y-90023809D01*
X4619047Y-90071428D01*
X4595238Y-90166666D01*
X4595238Y-90285714D01*
X4619047Y-90380952D01*
X4642857Y-90428571D01*
X4666666Y-90452380D01*
X4714285Y-90476190D01*
X4761904Y-90476190D01*
X4809523Y-90452380D01*
X4833333Y-90428571D01*
X4857142Y-90380952D01*
X4880952Y-90285714D01*
X4880952Y-90166666D01*
X4857142Y-90071428D01*
X4833333Y-90023809D01*
X4809523Y-90000000D01*
X4761904Y-89976190D01*
X4119047Y-90476190D02*
X4404761Y-90476190D01*
X4261904Y-90476190D02*
X4261904Y-89976190D01*
X4309523Y-90047619D01*
X4357142Y-90095238D01*
X4404761Y-90119047D01*
X3833333Y-90190476D02*
X3880952Y-90166666D01*
X3904761Y-90142857D01*
X3928571Y-90095238D01*
X3928571Y-90071428D01*
X3904761Y-90023809D01*
X3880952Y-90000000D01*
X3833333Y-89976190D01*
X3738095Y-89976190D01*
X3690476Y-90000000D01*
X3666666Y-90023809D01*
X3642857Y-90071428D01*
X3642857Y-90095238D01*
X3666666Y-90142857D01*
X3690476Y-90166666D01*
X3738095Y-90190476D01*
X3833333Y-90190476D01*
X3880952Y-90214285D01*
X3904761Y-90238095D01*
X3928571Y-90285714D01*
X3928571Y-90380952D01*
X3904761Y-90428571D01*
X3880952Y-90452380D01*
X3833333Y-90476190D01*
X3738095Y-90476190D01*
X3690476Y-90452380D01*
X3666666Y-90428571D01*
X3642857Y-90380952D01*
X3642857Y-90285714D01*
X3666666Y-90238095D01*
X3690476Y-90214285D01*
X3738095Y-90190476D01*
X5178571Y-91351190D02*
X5178571Y-91017857D01*
X5178571Y-91113095D02*
X5154761Y-91065476D01*
X5130952Y-91041666D01*
X5083333Y-91017857D01*
X5035714Y-91017857D01*
X4678571Y-91327380D02*
X4726190Y-91351190D01*
X4821428Y-91351190D01*
X4869047Y-91327380D01*
X4892857Y-91279761D01*
X4892857Y-91089285D01*
X4869047Y-91041666D01*
X4821428Y-91017857D01*
X4726190Y-91017857D01*
X4678571Y-91041666D01*
X4654761Y-91089285D01*
X4654761Y-91136904D01*
X4892857Y-91184523D01*
X4488095Y-91017857D02*
X4369047Y-91351190D01*
X4250000Y-91017857D01*
X3797619Y-91351190D02*
X4083333Y-91351190D01*
X3940476Y-91351190D02*
X3940476Y-90851190D01*
X3988095Y-90922619D01*
X4035714Y-90970238D01*
X4083333Y-90994047D01*
X6595238Y-92178571D02*
X6619047Y-92202380D01*
X6690476Y-92226190D01*
X6738095Y-92226190D01*
X6809523Y-92202380D01*
X6857142Y-92154761D01*
X6880952Y-92107142D01*
X6904761Y-92011904D01*
X6904761Y-91940476D01*
X6880952Y-91845238D01*
X6857142Y-91797619D01*
X6809523Y-91750000D01*
X6738095Y-91726190D01*
X6690476Y-91726190D01*
X6619047Y-91750000D01*
X6595238Y-91773809D01*
X6095238Y-92178571D02*
X6119047Y-92202380D01*
X6190476Y-92226190D01*
X6238095Y-92226190D01*
X6309523Y-92202380D01*
X6357142Y-92154761D01*
X6380952Y-92107142D01*
X6404761Y-92011904D01*
X6404761Y-91940476D01*
X6380952Y-91845238D01*
X6357142Y-91797619D01*
X6309523Y-91750000D01*
X6238095Y-91726190D01*
X6190476Y-91726190D01*
X6119047Y-91750000D01*
X6095238Y-91773809D01*
X5333333Y-91964285D02*
X5261904Y-91988095D01*
X5238095Y-92011904D01*
X5214285Y-92059523D01*
X5214285Y-92130952D01*
X5238095Y-92178571D01*
X5261904Y-92202380D01*
X5309523Y-92226190D01*
X5500000Y-92226190D01*
X5500000Y-91726190D01*
X5333333Y-91726190D01*
X5285714Y-91750000D01*
X5261904Y-91773809D01*
X5238095Y-91821428D01*
X5238095Y-91869047D01*
X5261904Y-91916666D01*
X5285714Y-91940476D01*
X5333333Y-91964285D01*
X5500000Y-91964285D01*
X4904761Y-91988095D02*
X4904761Y-92226190D01*
X5071428Y-91726190D02*
X4904761Y-91988095D01*
X4738095Y-91726190D01*
X4214285Y-92202380D02*
X4142857Y-92226190D01*
X4023809Y-92226190D01*
X3976190Y-92202380D01*
X3952380Y-92178571D01*
X3928571Y-92130952D01*
X3928571Y-92083333D01*
X3952380Y-92035714D01*
X3976190Y-92011904D01*
X4023809Y-91988095D01*
X4119047Y-91964285D01*
X4166666Y-91940476D01*
X4190476Y-91916666D01*
X4214285Y-91869047D01*
X4214285Y-91821428D01*
X4190476Y-91773809D01*
X4166666Y-91750000D01*
X4119047Y-91726190D01*
X4000000Y-91726190D01*
X3928571Y-91750000D01*
X3738095Y-92083333D02*
X3500000Y-92083333D01*
X3785714Y-92226190D02*
X3619047Y-91726190D01*
X3452380Y-92226190D01*
X2904761Y-92226190D02*
X2904761Y-91726190D01*
X2619047Y-92226190D01*
X2619047Y-91726190D01*
X2095238Y-92178571D02*
X2119047Y-92202380D01*
X2190476Y-92226190D01*
X2238095Y-92226190D01*
X2309523Y-92202380D01*
X2357142Y-92154761D01*
X2380952Y-92107142D01*
X2404761Y-92011904D01*
X2404761Y-91940476D01*
X2380952Y-91845238D01*
X2357142Y-91797619D01*
X2309523Y-91750000D01*
X2238095Y-91726190D01*
X2190476Y-91726190D01*
X2119047Y-91750000D01*
X2095238Y-91773809D01*
D11*
G36*
X4262620Y-81295428D02*
X4251569Y-81354727D01*
X4240917Y-81411463D01*
X4231727Y-81460011D01*
X4225059Y-81494748D01*
X4223925Y-81500545D01*
X4213277Y-81554570D01*
X4078710Y-81609186D01*
X4028978Y-81629112D01*
X3986199Y-81645765D01*
X3954227Y-81657681D01*
X3936916Y-81663396D01*
X3935234Y-81663685D01*
X3924067Y-81657931D01*
X3898391Y-81642001D01*
X3861105Y-81617776D01*
X3815106Y-81587141D01*
X3763906Y-81552397D01*
X3711756Y-81517200D01*
X3665011Y-81486591D01*
X3626678Y-81462464D01*
X3599764Y-81446711D01*
X3587382Y-81441225D01*
X3574562Y-81448449D01*
X3550668Y-81468218D01*
X3518498Y-81497678D01*
X3480844Y-81533975D01*
X3440503Y-81574254D01*
X3400270Y-81615662D01*
X3362938Y-81655344D01*
X3331305Y-81690446D01*
X3308164Y-81718114D01*
X3296310Y-81735493D01*
X3295449Y-81739340D01*
X3303000Y-81752343D01*
X3320574Y-81779646D01*
X3346120Y-81818155D01*
X3377588Y-81864774D01*
X3408133Y-81909442D01*
X3442638Y-81960084D01*
X3472528Y-82004854D01*
X3495880Y-82040796D01*
X3510768Y-82064953D01*
X3515339Y-82074145D01*
X3511415Y-82085792D01*
X3500858Y-82112531D01*
X3485496Y-82150044D01*
X3467156Y-82194011D01*
X3447664Y-82240111D01*
X3428847Y-82284026D01*
X3412532Y-82321435D01*
X3400545Y-82348019D01*
X3394713Y-82359458D01*
X3394663Y-82359512D01*
X3383959Y-82362155D01*
X3355898Y-82367898D01*
X3313958Y-82376062D01*
X3261616Y-82385966D01*
X3218180Y-82394025D01*
X3158378Y-82405092D01*
X3104473Y-82415180D01*
X3060525Y-82423519D01*
X3030598Y-82429342D01*
X3020362Y-82431464D01*
X3012264Y-82433803D01*
X3006247Y-82438493D01*
X3002002Y-82448344D01*
X2999220Y-82466162D01*
X2997591Y-82494758D01*
X2996808Y-82536941D01*
X2996560Y-82595517D01*
X2996540Y-82647950D01*
X2996540Y-82859024D01*
X3036244Y-82866200D01*
X3132222Y-82883878D01*
X3215258Y-82899850D01*
X3283794Y-82913784D01*
X3336267Y-82925350D01*
X3371119Y-82934219D01*
X3386787Y-82940060D01*
X3387244Y-82940471D01*
X3395952Y-82955752D01*
X3409488Y-82985765D01*
X3426214Y-83026174D01*
X3444490Y-83072642D01*
X3462676Y-83120833D01*
X3479132Y-83166410D01*
X3492219Y-83205036D01*
X3500298Y-83232375D01*
X3501922Y-83243770D01*
X3494447Y-83256543D01*
X3476982Y-83283527D01*
X3451634Y-83321553D01*
X3420510Y-83367452D01*
X3394904Y-83404757D01*
X3361239Y-83454178D01*
X3332265Y-83497891D01*
X3309968Y-83532802D01*
X3296337Y-83555815D01*
X3292997Y-83563431D01*
X3300244Y-83574775D01*
X3320057Y-83597719D01*
X3349545Y-83629390D01*
X3385815Y-83666914D01*
X3425976Y-83707421D01*
X3467135Y-83748036D01*
X3506402Y-83785887D01*
X3540884Y-83818102D01*
X3567689Y-83841807D01*
X3583925Y-83854130D01*
X3586738Y-83855231D01*
X3599454Y-83849449D01*
X3626386Y-83833408D01*
X3664458Y-83809071D01*
X3710590Y-83778395D01*
X3753726Y-83748883D01*
X3907255Y-83642534D01*
X3974361Y-83680062D01*
X4009584Y-83698594D01*
X4039052Y-83712005D01*
X4056730Y-83717566D01*
X4057354Y-83717591D01*
X4065900Y-83708928D01*
X4080794Y-83682643D01*
X4102244Y-83638288D01*
X4130455Y-83575417D01*
X4165635Y-83493584D01*
X4207212Y-83394225D01*
X4239398Y-83315985D01*
X4268790Y-83243476D01*
X4294431Y-83179142D01*
X4315365Y-83125427D01*
X4330633Y-83084773D01*
X4339281Y-83059624D01*
X4340899Y-83052770D01*
X4332304Y-83036907D01*
X4310838Y-83017329D01*
X4297407Y-83008212D01*
X4247589Y-82970570D01*
X4198267Y-82921056D01*
X4155077Y-82866231D01*
X4123655Y-82812652D01*
X4118006Y-82799470D01*
X4099795Y-82731689D01*
X4092690Y-82656013D01*
X4096839Y-82580916D01*
X4112393Y-82514868D01*
X4112950Y-82513351D01*
X4153437Y-82432652D01*
X4209309Y-82363315D01*
X4277601Y-82307269D01*
X4355348Y-82266442D01*
X4439586Y-82242763D01*
X4527351Y-82238160D01*
X4535114Y-82238729D01*
X4623152Y-82255766D01*
X4701754Y-82289721D01*
X4769739Y-82338091D01*
X4825924Y-82398373D01*
X4869126Y-82468064D01*
X4898164Y-82544660D01*
X4911854Y-82625660D01*
X4909015Y-82708558D01*
X4888464Y-82790854D01*
X4849019Y-82870042D01*
X4839817Y-82883779D01*
X4819407Y-82911077D01*
X4797418Y-82935385D01*
X4769762Y-82960425D01*
X4732350Y-82989918D01*
X4684804Y-83024906D01*
X4654405Y-83046895D01*
X4791043Y-83378082D01*
X4823800Y-83456740D01*
X4854481Y-83529007D01*
X4882061Y-83592576D01*
X4905516Y-83645142D01*
X4923821Y-83684399D01*
X4935953Y-83708043D01*
X4940351Y-83714130D01*
X4955278Y-83711955D01*
X4983331Y-83701795D01*
X5018993Y-83685708D01*
X5026666Y-83681904D01*
X5100313Y-83644816D01*
X5252700Y-83750023D01*
X5302885Y-83784263D01*
X5347371Y-83813844D01*
X5383122Y-83836808D01*
X5407103Y-83851199D01*
X5415904Y-83855231D01*
X5426461Y-83848064D01*
X5449322Y-83828126D01*
X5481963Y-83797767D01*
X5521860Y-83759334D01*
X5566490Y-83715175D01*
X5566862Y-83714802D01*
X5611019Y-83669842D01*
X5649463Y-83629339D01*
X5679843Y-83595881D01*
X5699806Y-83572061D01*
X5707003Y-83560466D01*
X5707003Y-83560458D01*
X5701275Y-83547564D01*
X5685380Y-83520382D01*
X5661255Y-83482001D01*
X5630834Y-83435511D01*
X5600974Y-83391196D01*
X5494945Y-83235848D01*
X5554350Y-83087620D01*
X5575261Y-83035772D01*
X5593432Y-82991334D01*
X5607410Y-82957813D01*
X5615741Y-82938716D01*
X5617331Y-82935677D01*
X5627845Y-82933012D01*
X5655164Y-82927165D01*
X5695292Y-82918922D01*
X5744233Y-82909070D01*
X5797994Y-82898397D01*
X5852577Y-82887691D01*
X5903988Y-82877737D01*
X5948231Y-82869325D01*
X5981312Y-82863240D01*
X5999234Y-82860271D01*
X6000813Y-82860110D01*
X6001617Y-82850011D01*
X6002324Y-82821910D01*
X6002892Y-82778981D01*
X6003282Y-82724398D01*
X6003455Y-82661334D01*
X6003459Y-82648430D01*
X6003403Y-82576571D01*
X6003029Y-82523080D01*
X6003008Y-82522252D01*
X5919382Y-82522252D01*
X5916423Y-82656204D01*
X5913464Y-82790155D01*
X5746799Y-82822570D01*
X5681460Y-82835686D01*
X5633622Y-82846465D01*
X5599882Y-82855946D01*
X5576835Y-82865168D01*
X5561080Y-82875169D01*
X5554359Y-82881307D01*
X5538820Y-82903686D01*
X5518939Y-82941672D01*
X5496548Y-82990620D01*
X5473483Y-83045881D01*
X5451575Y-83102810D01*
X5432658Y-83156759D01*
X5418567Y-83203081D01*
X5411134Y-83237129D01*
X5410436Y-83246059D01*
X5412028Y-83265289D01*
X5418073Y-83286107D01*
X5430323Y-83311921D01*
X5450528Y-83346137D01*
X5480443Y-83392165D01*
X5502162Y-83424480D01*
X5593998Y-83560173D01*
X5500385Y-83654222D01*
X5464076Y-83689382D01*
X5432541Y-83717465D01*
X5408953Y-83735817D01*
X5396485Y-83741783D01*
X5395955Y-83741586D01*
X5383449Y-83733236D01*
X5357344Y-83715411D01*
X5321435Y-83690713D01*
X5279517Y-83661745D01*
X5278730Y-83661200D01*
X5217284Y-83619645D01*
X5169123Y-83590234D01*
X5130877Y-83572037D01*
X5099175Y-83564123D01*
X5070646Y-83565560D01*
X5041919Y-83575419D01*
X5016478Y-83588773D01*
X4995283Y-83598904D01*
X4983485Y-83600740D01*
X4983293Y-83600569D01*
X4978240Y-83589883D01*
X4966286Y-83562245D01*
X4948544Y-83520305D01*
X4926130Y-83466711D01*
X4900156Y-83404111D01*
X4875006Y-83343107D01*
X4843485Y-83266247D01*
X4819344Y-83206589D01*
X4801850Y-83161778D01*
X4790271Y-83129456D01*
X4783874Y-83107268D01*
X4781924Y-83092856D01*
X4783690Y-83083865D01*
X4788439Y-83077937D01*
X4791726Y-83075369D01*
X4867871Y-83008167D01*
X4927258Y-82931404D01*
X4970058Y-82847515D01*
X4996441Y-82758932D01*
X5006578Y-82668090D01*
X5000641Y-82577423D01*
X4978799Y-82489363D01*
X4941224Y-82406344D01*
X4888086Y-82330801D01*
X4819557Y-82265167D01*
X4735808Y-82211875D01*
X4730930Y-82209433D01*
X4633610Y-82172368D01*
X4534223Y-82155307D01*
X4435272Y-82157924D01*
X4339260Y-82179897D01*
X4248688Y-82220898D01*
X4166059Y-82280604D01*
X4163213Y-82283145D01*
X4094320Y-82358300D01*
X4044323Y-82442949D01*
X4013165Y-82537218D01*
X4000792Y-82641237D01*
X4000551Y-82658816D01*
X4009358Y-82762606D01*
X4036300Y-82856245D01*
X4082164Y-82941495D01*
X4147731Y-83020116D01*
X4171658Y-83042943D01*
X4232444Y-83098207D01*
X4129886Y-83344249D01*
X4101654Y-83411683D01*
X4075956Y-83472501D01*
X4053948Y-83524011D01*
X4036787Y-83563521D01*
X4025629Y-83588343D01*
X4021782Y-83595836D01*
X4009807Y-83595091D01*
X3985239Y-83587121D01*
X3966952Y-83579581D01*
X3939158Y-83569049D01*
X3913597Y-83564774D01*
X3886936Y-83567907D01*
X3855844Y-83579597D01*
X3816991Y-83600992D01*
X3767044Y-83633241D01*
X3721973Y-83664084D01*
X3596528Y-83750991D01*
X3407825Y-83562288D01*
X3491559Y-83441419D01*
X3530424Y-83385050D01*
X3558728Y-83342977D01*
X3578117Y-83312195D01*
X3590241Y-83289697D01*
X3596746Y-83272479D01*
X3599281Y-83257536D01*
X3599547Y-83244485D01*
X3595043Y-83219623D01*
X3583243Y-83180955D01*
X3565891Y-83132613D01*
X3544734Y-83078729D01*
X3521515Y-83023436D01*
X3497981Y-82970865D01*
X3475875Y-82925149D01*
X3456942Y-82890419D01*
X3442929Y-82870807D01*
X3441066Y-82869203D01*
X3418241Y-82858855D01*
X3376609Y-82846785D01*
X3318413Y-82833569D01*
X3253293Y-82821091D01*
X3091830Y-82792275D01*
X3091830Y-82522677D01*
X3147415Y-82511686D01*
X3181568Y-82505040D01*
X3229256Y-82495900D01*
X3283199Y-82485657D01*
X3319466Y-82478822D01*
X3377686Y-82466810D01*
X3418389Y-82455610D01*
X3445144Y-82444062D01*
X3459222Y-82433476D01*
X3472826Y-82413876D01*
X3491616Y-82378945D01*
X3513710Y-82333096D01*
X3537229Y-82280738D01*
X3560292Y-82226281D01*
X3581020Y-82174136D01*
X3597531Y-82128714D01*
X3607947Y-82094425D01*
X3610629Y-82078323D01*
X3606799Y-82061073D01*
X3594741Y-82034450D01*
X3573608Y-81997064D01*
X3542547Y-81947528D01*
X3500712Y-81884452D01*
X3447251Y-81806448D01*
X3422889Y-81771426D01*
X3419078Y-81761969D01*
X3421889Y-81750175D01*
X3433360Y-81733224D01*
X3455529Y-81708296D01*
X3490436Y-81672569D01*
X3504466Y-81658559D01*
X3599084Y-81564378D01*
X3708087Y-81639109D01*
X3754471Y-81670873D01*
X3798622Y-81701047D01*
X3835345Y-81726083D01*
X3858272Y-81741642D01*
X3889841Y-81758726D01*
X3920095Y-81768530D01*
X3928946Y-81769445D01*
X3951958Y-81765171D01*
X3989514Y-81753587D01*
X4037069Y-81736555D01*
X4090078Y-81715935D01*
X4143997Y-81693588D01*
X4194283Y-81671373D01*
X4236392Y-81651152D01*
X4265778Y-81634785D01*
X4275398Y-81627602D01*
X4285338Y-81614879D01*
X4294501Y-81595299D01*
X4303779Y-81565765D01*
X4314068Y-81523183D01*
X4326260Y-81464458D01*
X4333995Y-81424715D01*
X4368380Y-81245352D01*
X4502101Y-81242396D01*
X4635822Y-81239439D01*
X4641686Y-81268865D01*
X4645698Y-81289708D01*
X4652682Y-81326705D01*
X4661763Y-81375188D01*
X4672063Y-81430488D01*
X4675596Y-81449522D01*
X4687520Y-81508831D01*
X4699501Y-81559568D01*
X4710518Y-81597854D01*
X4719552Y-81619810D01*
X4720934Y-81621784D01*
X4737238Y-81633641D01*
X4769168Y-81650827D01*
X4812420Y-81671517D01*
X4862688Y-81693882D01*
X4915669Y-81716098D01*
X4967058Y-81736337D01*
X5012551Y-81752773D01*
X5047844Y-81763579D01*
X5062137Y-81766574D01*
X5077654Y-81767471D01*
X5093934Y-81764678D01*
X5114066Y-81756613D01*
X5141136Y-81741692D01*
X5178232Y-81718334D01*
X5228442Y-81684957D01*
X5250545Y-81670033D01*
X5300262Y-81636661D01*
X5343900Y-81607885D01*
X5378453Y-81585646D01*
X5400919Y-81571883D01*
X5408153Y-81568278D01*
X5418494Y-81575379D01*
X5439694Y-81594243D01*
X5468098Y-81621215D01*
X5500051Y-81652640D01*
X5531899Y-81684862D01*
X5559988Y-81714225D01*
X5580661Y-81737074D01*
X5590266Y-81749753D01*
X5590537Y-81750708D01*
X5584845Y-81761816D01*
X5569123Y-81787183D01*
X5545402Y-81823667D01*
X5515713Y-81868121D01*
X5495248Y-81898236D01*
X5458353Y-81952883D01*
X5432192Y-81993766D01*
X5415019Y-82024226D01*
X5405088Y-82047606D01*
X5400653Y-82067250D01*
X5399884Y-82080850D01*
X5404188Y-82108186D01*
X5415959Y-82148688D01*
X5433392Y-82198107D01*
X5454680Y-82252195D01*
X5478017Y-82306704D01*
X5501596Y-82357385D01*
X5523611Y-82399990D01*
X5542256Y-82430271D01*
X5553869Y-82442995D01*
X5575577Y-82451862D01*
X5617557Y-82463245D01*
X5679987Y-82477184D01*
X5763045Y-82493719D01*
X5866912Y-82512890D01*
X5879366Y-82515117D01*
X5919382Y-82522252D01*
X6003008Y-82522252D01*
X6002028Y-82485148D01*
X6000093Y-82459968D01*
X5996916Y-82444731D01*
X5992189Y-82436631D01*
X5985604Y-82432857D01*
X5979637Y-82431267D01*
X5961376Y-82427466D01*
X5926438Y-82420616D01*
X5878969Y-82411514D01*
X5823116Y-82400960D01*
X5787168Y-82394236D01*
X5729769Y-82383148D01*
X5679749Y-82372738D01*
X5640801Y-82363836D01*
X5616617Y-82357268D01*
X5610567Y-82354647D01*
X5603698Y-82342408D01*
X5590314Y-82314431D01*
X5572148Y-82274478D01*
X5550934Y-82226312D01*
X5543600Y-82209348D01*
X5484589Y-82072218D01*
X5525202Y-82013474D01*
X5548502Y-81979775D01*
X5579291Y-81935244D01*
X5613015Y-81886468D01*
X5636409Y-81852633D01*
X5664232Y-81811212D01*
X5686888Y-81775233D01*
X5701947Y-81748712D01*
X5707003Y-81736021D01*
X5699818Y-81724480D01*
X5680173Y-81701238D01*
X5650936Y-81669196D01*
X5614973Y-81631256D01*
X5575150Y-81590319D01*
X5534334Y-81549287D01*
X5495391Y-81511061D01*
X5461188Y-81478544D01*
X5434592Y-81454636D01*
X5418468Y-81442239D01*
X5415698Y-81441151D01*
X5404044Y-81446823D01*
X5377848Y-81462656D01*
X5340009Y-81486798D01*
X5293426Y-81517399D01*
X5240996Y-81552607D01*
X5238614Y-81554224D01*
X5071976Y-81667372D01*
X4947451Y-81617686D01*
X4898668Y-81597945D01*
X4856177Y-81580237D01*
X4824348Y-81566418D01*
X4807550Y-81558345D01*
X4807044Y-81558039D01*
X4798342Y-81542867D01*
X4787204Y-81506728D01*
X4773625Y-81449602D01*
X4757600Y-81371468D01*
X4753291Y-81349071D01*
X4715419Y-81150062D01*
X4503043Y-81147200D01*
X4290668Y-81144339D01*
X4262620Y-81295428D01*
X4262620Y-81295428D01*
G37*
X4262620Y-81295428D02*
X4251569Y-81354727D01*
X4240917Y-81411463D01*
X4231727Y-81460011D01*
X4225059Y-81494748D01*
X4223925Y-81500545D01*
X4213277Y-81554570D01*
X4078710Y-81609186D01*
X4028978Y-81629112D01*
X3986199Y-81645765D01*
X3954227Y-81657681D01*
X3936916Y-81663396D01*
X3935234Y-81663685D01*
X3924067Y-81657931D01*
X3898391Y-81642001D01*
X3861105Y-81617776D01*
X3815106Y-81587141D01*
X3763906Y-81552397D01*
X3711756Y-81517200D01*
X3665011Y-81486591D01*
X3626678Y-81462464D01*
X3599764Y-81446711D01*
X3587382Y-81441225D01*
X3574562Y-81448449D01*
X3550668Y-81468218D01*
X3518498Y-81497678D01*
X3480844Y-81533975D01*
X3440503Y-81574254D01*
X3400270Y-81615662D01*
X3362938Y-81655344D01*
X3331305Y-81690446D01*
X3308164Y-81718114D01*
X3296310Y-81735493D01*
X3295449Y-81739340D01*
X3303000Y-81752343D01*
X3320574Y-81779646D01*
X3346120Y-81818155D01*
X3377588Y-81864774D01*
X3408133Y-81909442D01*
X3442638Y-81960084D01*
X3472528Y-82004854D01*
X3495880Y-82040796D01*
X3510768Y-82064953D01*
X3515339Y-82074145D01*
X3511415Y-82085792D01*
X3500858Y-82112531D01*
X3485496Y-82150044D01*
X3467156Y-82194011D01*
X3447664Y-82240111D01*
X3428847Y-82284026D01*
X3412532Y-82321435D01*
X3400545Y-82348019D01*
X3394713Y-82359458D01*
X3394663Y-82359512D01*
X3383959Y-82362155D01*
X3355898Y-82367898D01*
X3313958Y-82376062D01*
X3261616Y-82385966D01*
X3218180Y-82394025D01*
X3158378Y-82405092D01*
X3104473Y-82415180D01*
X3060525Y-82423519D01*
X3030598Y-82429342D01*
X3020362Y-82431464D01*
X3012264Y-82433803D01*
X3006247Y-82438493D01*
X3002002Y-82448344D01*
X2999220Y-82466162D01*
X2997591Y-82494758D01*
X2996808Y-82536941D01*
X2996560Y-82595517D01*
X2996540Y-82647950D01*
X2996540Y-82859024D01*
X3036244Y-82866200D01*
X3132222Y-82883878D01*
X3215258Y-82899850D01*
X3283794Y-82913784D01*
X3336267Y-82925350D01*
X3371119Y-82934219D01*
X3386787Y-82940060D01*
X3387244Y-82940471D01*
X3395952Y-82955752D01*
X3409488Y-82985765D01*
X3426214Y-83026174D01*
X3444490Y-83072642D01*
X3462676Y-83120833D01*
X3479132Y-83166410D01*
X3492219Y-83205036D01*
X3500298Y-83232375D01*
X3501922Y-83243770D01*
X3494447Y-83256543D01*
X3476982Y-83283527D01*
X3451634Y-83321553D01*
X3420510Y-83367452D01*
X3394904Y-83404757D01*
X3361239Y-83454178D01*
X3332265Y-83497891D01*
X3309968Y-83532802D01*
X3296337Y-83555815D01*
X3292997Y-83563431D01*
X3300244Y-83574775D01*
X3320057Y-83597719D01*
X3349545Y-83629390D01*
X3385815Y-83666914D01*
X3425976Y-83707421D01*
X3467135Y-83748036D01*
X3506402Y-83785887D01*
X3540884Y-83818102D01*
X3567689Y-83841807D01*
X3583925Y-83854130D01*
X3586738Y-83855231D01*
X3599454Y-83849449D01*
X3626386Y-83833408D01*
X3664458Y-83809071D01*
X3710590Y-83778395D01*
X3753726Y-83748883D01*
X3907255Y-83642534D01*
X3974361Y-83680062D01*
X4009584Y-83698594D01*
X4039052Y-83712005D01*
X4056730Y-83717566D01*
X4057354Y-83717591D01*
X4065900Y-83708928D01*
X4080794Y-83682643D01*
X4102244Y-83638288D01*
X4130455Y-83575417D01*
X4165635Y-83493584D01*
X4207212Y-83394225D01*
X4239398Y-83315985D01*
X4268790Y-83243476D01*
X4294431Y-83179142D01*
X4315365Y-83125427D01*
X4330633Y-83084773D01*
X4339281Y-83059624D01*
X4340899Y-83052770D01*
X4332304Y-83036907D01*
X4310838Y-83017329D01*
X4297407Y-83008212D01*
X4247589Y-82970570D01*
X4198267Y-82921056D01*
X4155077Y-82866231D01*
X4123655Y-82812652D01*
X4118006Y-82799470D01*
X4099795Y-82731689D01*
X4092690Y-82656013D01*
X4096839Y-82580916D01*
X4112393Y-82514868D01*
X4112950Y-82513351D01*
X4153437Y-82432652D01*
X4209309Y-82363315D01*
X4277601Y-82307269D01*
X4355348Y-82266442D01*
X4439586Y-82242763D01*
X4527351Y-82238160D01*
X4535114Y-82238729D01*
X4623152Y-82255766D01*
X4701754Y-82289721D01*
X4769739Y-82338091D01*
X4825924Y-82398373D01*
X4869126Y-82468064D01*
X4898164Y-82544660D01*
X4911854Y-82625660D01*
X4909015Y-82708558D01*
X4888464Y-82790854D01*
X4849019Y-82870042D01*
X4839817Y-82883779D01*
X4819407Y-82911077D01*
X4797418Y-82935385D01*
X4769762Y-82960425D01*
X4732350Y-82989918D01*
X4684804Y-83024906D01*
X4654405Y-83046895D01*
X4791043Y-83378082D01*
X4823800Y-83456740D01*
X4854481Y-83529007D01*
X4882061Y-83592576D01*
X4905516Y-83645142D01*
X4923821Y-83684399D01*
X4935953Y-83708043D01*
X4940351Y-83714130D01*
X4955278Y-83711955D01*
X4983331Y-83701795D01*
X5018993Y-83685708D01*
X5026666Y-83681904D01*
X5100313Y-83644816D01*
X5252700Y-83750023D01*
X5302885Y-83784263D01*
X5347371Y-83813844D01*
X5383122Y-83836808D01*
X5407103Y-83851199D01*
X5415904Y-83855231D01*
X5426461Y-83848064D01*
X5449322Y-83828126D01*
X5481963Y-83797767D01*
X5521860Y-83759334D01*
X5566490Y-83715175D01*
X5566862Y-83714802D01*
X5611019Y-83669842D01*
X5649463Y-83629339D01*
X5679843Y-83595881D01*
X5699806Y-83572061D01*
X5707003Y-83560466D01*
X5707003Y-83560458D01*
X5701275Y-83547564D01*
X5685380Y-83520382D01*
X5661255Y-83482001D01*
X5630834Y-83435511D01*
X5600974Y-83391196D01*
X5494945Y-83235848D01*
X5554350Y-83087620D01*
X5575261Y-83035772D01*
X5593432Y-82991334D01*
X5607410Y-82957813D01*
X5615741Y-82938716D01*
X5617331Y-82935677D01*
X5627845Y-82933012D01*
X5655164Y-82927165D01*
X5695292Y-82918922D01*
X5744233Y-82909070D01*
X5797994Y-82898397D01*
X5852577Y-82887691D01*
X5903988Y-82877737D01*
X5948231Y-82869325D01*
X5981312Y-82863240D01*
X5999234Y-82860271D01*
X6000813Y-82860110D01*
X6001617Y-82850011D01*
X6002324Y-82821910D01*
X6002892Y-82778981D01*
X6003282Y-82724398D01*
X6003455Y-82661334D01*
X6003459Y-82648430D01*
X6003403Y-82576571D01*
X6003029Y-82523080D01*
X6003008Y-82522252D01*
X5919382Y-82522252D01*
X5916423Y-82656204D01*
X5913464Y-82790155D01*
X5746799Y-82822570D01*
X5681460Y-82835686D01*
X5633622Y-82846465D01*
X5599882Y-82855946D01*
X5576835Y-82865168D01*
X5561080Y-82875169D01*
X5554359Y-82881307D01*
X5538820Y-82903686D01*
X5518939Y-82941672D01*
X5496548Y-82990620D01*
X5473483Y-83045881D01*
X5451575Y-83102810D01*
X5432658Y-83156759D01*
X5418567Y-83203081D01*
X5411134Y-83237129D01*
X5410436Y-83246059D01*
X5412028Y-83265289D01*
X5418073Y-83286107D01*
X5430323Y-83311921D01*
X5450528Y-83346137D01*
X5480443Y-83392165D01*
X5502162Y-83424480D01*
X5593998Y-83560173D01*
X5500385Y-83654222D01*
X5464076Y-83689382D01*
X5432541Y-83717465D01*
X5408953Y-83735817D01*
X5396485Y-83741783D01*
X5395955Y-83741586D01*
X5383449Y-83733236D01*
X5357344Y-83715411D01*
X5321435Y-83690713D01*
X5279517Y-83661745D01*
X5278730Y-83661200D01*
X5217284Y-83619645D01*
X5169123Y-83590234D01*
X5130877Y-83572037D01*
X5099175Y-83564123D01*
X5070646Y-83565560D01*
X5041919Y-83575419D01*
X5016478Y-83588773D01*
X4995283Y-83598904D01*
X4983485Y-83600740D01*
X4983293Y-83600569D01*
X4978240Y-83589883D01*
X4966286Y-83562245D01*
X4948544Y-83520305D01*
X4926130Y-83466711D01*
X4900156Y-83404111D01*
X4875006Y-83343107D01*
X4843485Y-83266247D01*
X4819344Y-83206589D01*
X4801850Y-83161778D01*
X4790271Y-83129456D01*
X4783874Y-83107268D01*
X4781924Y-83092856D01*
X4783690Y-83083865D01*
X4788439Y-83077937D01*
X4791726Y-83075369D01*
X4867871Y-83008167D01*
X4927258Y-82931404D01*
X4970058Y-82847515D01*
X4996441Y-82758932D01*
X5006578Y-82668090D01*
X5000641Y-82577423D01*
X4978799Y-82489363D01*
X4941224Y-82406344D01*
X4888086Y-82330801D01*
X4819557Y-82265167D01*
X4735808Y-82211875D01*
X4730930Y-82209433D01*
X4633610Y-82172368D01*
X4534223Y-82155307D01*
X4435272Y-82157924D01*
X4339260Y-82179897D01*
X4248688Y-82220898D01*
X4166059Y-82280604D01*
X4163213Y-82283145D01*
X4094320Y-82358300D01*
X4044323Y-82442949D01*
X4013165Y-82537218D01*
X4000792Y-82641237D01*
X4000551Y-82658816D01*
X4009358Y-82762606D01*
X4036300Y-82856245D01*
X4082164Y-82941495D01*
X4147731Y-83020116D01*
X4171658Y-83042943D01*
X4232444Y-83098207D01*
X4129886Y-83344249D01*
X4101654Y-83411683D01*
X4075956Y-83472501D01*
X4053948Y-83524011D01*
X4036787Y-83563521D01*
X4025629Y-83588343D01*
X4021782Y-83595836D01*
X4009807Y-83595091D01*
X3985239Y-83587121D01*
X3966952Y-83579581D01*
X3939158Y-83569049D01*
X3913597Y-83564774D01*
X3886936Y-83567907D01*
X3855844Y-83579597D01*
X3816991Y-83600992D01*
X3767044Y-83633241D01*
X3721973Y-83664084D01*
X3596528Y-83750991D01*
X3407825Y-83562288D01*
X3491559Y-83441419D01*
X3530424Y-83385050D01*
X3558728Y-83342977D01*
X3578117Y-83312195D01*
X3590241Y-83289697D01*
X3596746Y-83272479D01*
X3599281Y-83257536D01*
X3599547Y-83244485D01*
X3595043Y-83219623D01*
X3583243Y-83180955D01*
X3565891Y-83132613D01*
X3544734Y-83078729D01*
X3521515Y-83023436D01*
X3497981Y-82970865D01*
X3475875Y-82925149D01*
X3456942Y-82890419D01*
X3442929Y-82870807D01*
X3441066Y-82869203D01*
X3418241Y-82858855D01*
X3376609Y-82846785D01*
X3318413Y-82833569D01*
X3253293Y-82821091D01*
X3091830Y-82792275D01*
X3091830Y-82522677D01*
X3147415Y-82511686D01*
X3181568Y-82505040D01*
X3229256Y-82495900D01*
X3283199Y-82485657D01*
X3319466Y-82478822D01*
X3377686Y-82466810D01*
X3418389Y-82455610D01*
X3445144Y-82444062D01*
X3459222Y-82433476D01*
X3472826Y-82413876D01*
X3491616Y-82378945D01*
X3513710Y-82333096D01*
X3537229Y-82280738D01*
X3560292Y-82226281D01*
X3581020Y-82174136D01*
X3597531Y-82128714D01*
X3607947Y-82094425D01*
X3610629Y-82078323D01*
X3606799Y-82061073D01*
X3594741Y-82034450D01*
X3573608Y-81997064D01*
X3542547Y-81947528D01*
X3500712Y-81884452D01*
X3447251Y-81806448D01*
X3422889Y-81771426D01*
X3419078Y-81761969D01*
X3421889Y-81750175D01*
X3433360Y-81733224D01*
X3455529Y-81708296D01*
X3490436Y-81672569D01*
X3504466Y-81658559D01*
X3599084Y-81564378D01*
X3708087Y-81639109D01*
X3754471Y-81670873D01*
X3798622Y-81701047D01*
X3835345Y-81726083D01*
X3858272Y-81741642D01*
X3889841Y-81758726D01*
X3920095Y-81768530D01*
X3928946Y-81769445D01*
X3951958Y-81765171D01*
X3989514Y-81753587D01*
X4037069Y-81736555D01*
X4090078Y-81715935D01*
X4143997Y-81693588D01*
X4194283Y-81671373D01*
X4236392Y-81651152D01*
X4265778Y-81634785D01*
X4275398Y-81627602D01*
X4285338Y-81614879D01*
X4294501Y-81595299D01*
X4303779Y-81565765D01*
X4314068Y-81523183D01*
X4326260Y-81464458D01*
X4333995Y-81424715D01*
X4368380Y-81245352D01*
X4502101Y-81242396D01*
X4635822Y-81239439D01*
X4641686Y-81268865D01*
X4645698Y-81289708D01*
X4652682Y-81326705D01*
X4661763Y-81375188D01*
X4672063Y-81430488D01*
X4675596Y-81449522D01*
X4687520Y-81508831D01*
X4699501Y-81559568D01*
X4710518Y-81597854D01*
X4719552Y-81619810D01*
X4720934Y-81621784D01*
X4737238Y-81633641D01*
X4769168Y-81650827D01*
X4812420Y-81671517D01*
X4862688Y-81693882D01*
X4915669Y-81716098D01*
X4967058Y-81736337D01*
X5012551Y-81752773D01*
X5047844Y-81763579D01*
X5062137Y-81766574D01*
X5077654Y-81767471D01*
X5093934Y-81764678D01*
X5114066Y-81756613D01*
X5141136Y-81741692D01*
X5178232Y-81718334D01*
X5228442Y-81684957D01*
X5250545Y-81670033D01*
X5300262Y-81636661D01*
X5343900Y-81607885D01*
X5378453Y-81585646D01*
X5400919Y-81571883D01*
X5408153Y-81568278D01*
X5418494Y-81575379D01*
X5439694Y-81594243D01*
X5468098Y-81621215D01*
X5500051Y-81652640D01*
X5531899Y-81684862D01*
X5559988Y-81714225D01*
X5580661Y-81737074D01*
X5590266Y-81749753D01*
X5590537Y-81750708D01*
X5584845Y-81761816D01*
X5569123Y-81787183D01*
X5545402Y-81823667D01*
X5515713Y-81868121D01*
X5495248Y-81898236D01*
X5458353Y-81952883D01*
X5432192Y-81993766D01*
X5415019Y-82024226D01*
X5405088Y-82047606D01*
X5400653Y-82067250D01*
X5399884Y-82080850D01*
X5404188Y-82108186D01*
X5415959Y-82148688D01*
X5433392Y-82198107D01*
X5454680Y-82252195D01*
X5478017Y-82306704D01*
X5501596Y-82357385D01*
X5523611Y-82399990D01*
X5542256Y-82430271D01*
X5553869Y-82442995D01*
X5575577Y-82451862D01*
X5617557Y-82463245D01*
X5679987Y-82477184D01*
X5763045Y-82493719D01*
X5866912Y-82512890D01*
X5879366Y-82515117D01*
X5919382Y-82522252D01*
X6003008Y-82522252D01*
X6002028Y-82485148D01*
X6000093Y-82459968D01*
X5996916Y-82444731D01*
X5992189Y-82436631D01*
X5985604Y-82432857D01*
X5979637Y-82431267D01*
X5961376Y-82427466D01*
X5926438Y-82420616D01*
X5878969Y-82411514D01*
X5823116Y-82400960D01*
X5787168Y-82394236D01*
X5729769Y-82383148D01*
X5679749Y-82372738D01*
X5640801Y-82363836D01*
X5616617Y-82357268D01*
X5610567Y-82354647D01*
X5603698Y-82342408D01*
X5590314Y-82314431D01*
X5572148Y-82274478D01*
X5550934Y-82226312D01*
X5543600Y-82209348D01*
X5484589Y-82072218D01*
X5525202Y-82013474D01*
X5548502Y-81979775D01*
X5579291Y-81935244D01*
X5613015Y-81886468D01*
X5636409Y-81852633D01*
X5664232Y-81811212D01*
X5686888Y-81775233D01*
X5701947Y-81748712D01*
X5707003Y-81736021D01*
X5699818Y-81724480D01*
X5680173Y-81701238D01*
X5650936Y-81669196D01*
X5614973Y-81631256D01*
X5575150Y-81590319D01*
X5534334Y-81549287D01*
X5495391Y-81511061D01*
X5461188Y-81478544D01*
X5434592Y-81454636D01*
X5418468Y-81442239D01*
X5415698Y-81441151D01*
X5404044Y-81446823D01*
X5377848Y-81462656D01*
X5340009Y-81486798D01*
X5293426Y-81517399D01*
X5240996Y-81552607D01*
X5238614Y-81554224D01*
X5071976Y-81667372D01*
X4947451Y-81617686D01*
X4898668Y-81597945D01*
X4856177Y-81580237D01*
X4824348Y-81566418D01*
X4807550Y-81558345D01*
X4807044Y-81558039D01*
X4798342Y-81542867D01*
X4787204Y-81506728D01*
X4773625Y-81449602D01*
X4757600Y-81371468D01*
X4753291Y-81349071D01*
X4715419Y-81150062D01*
X4503043Y-81147200D01*
X4290668Y-81144339D01*
X4262620Y-81295428D01*
M02*
