G04 #@! TF.GenerationSoftware,KiCad,Pcbnew,(2018-02-10 revision a04965c)-master*
G04 #@! TF.CreationDate,2018-05-21T22:46:27-05:00*
G04 #@! TF.ProjectId,passive_stereo_output,706173736976655F73746572656F5F6F,rev?*
G04 #@! TF.SameCoordinates,Original*
G04 #@! TF.FileFunction,Copper,L2,Bot,Signal*
G04 #@! TF.FilePolarity,Positive*
%FSLAX46Y46*%
G04 Gerber Fmt 4.6, Leading zero omitted, Abs format (unit mm)*
G04 Created by KiCad (PCBNEW (2018-02-10 revision a04965c)-master) date Monday, May 21, 2018 at 10:46:27 PM*
%MOMM*%
%LPD*%
G01*
G04 APERTURE LIST*
%ADD10C,1.800000*%
%ADD11R,4.000000X4.000000*%
%ADD12C,3.000000*%
%ADD13C,2.150000*%
%ADD14C,0.250000*%
%ADD15C,0.254000*%
G04 APERTURE END LIST*
D10*
X2001900Y-85860380D03*
X4501900Y-85860380D03*
X7001900Y-85860380D03*
D11*
X101900Y-78860380D03*
X8901900Y-78860380D03*
D10*
X2001900Y-62235380D03*
X4501900Y-62235380D03*
X7001900Y-62235380D03*
D11*
X101900Y-55235380D03*
X8901900Y-55235380D03*
D12*
X4500000Y-102000000D03*
D13*
X4500000Y-106920000D03*
X4500000Y-98620000D03*
D10*
X4500000Y-95520000D03*
X4500000Y-37605000D03*
D13*
X4500000Y-34505000D03*
X4500000Y-26205000D03*
D12*
X4500000Y-31125000D03*
X4500000Y-7500000D03*
D13*
X4500000Y-2580000D03*
X4500000Y-10880000D03*
D10*
X4500000Y-13980000D03*
D14*
X7001900Y-62235380D02*
X4500000Y-59733480D01*
X4500000Y-53000000D02*
X1000000Y-49500000D01*
X4500000Y-59733480D02*
X4500000Y-53000000D01*
X1000000Y-49500000D02*
X1000000Y-6080000D01*
X1000000Y-6080000D02*
X4500000Y-2580000D01*
X5750000Y-76500000D02*
X5750000Y-84608480D01*
X5750000Y-84608480D02*
X7001900Y-85860380D01*
X8500000Y-73750000D02*
X5750000Y-76500000D01*
X8500000Y-60500000D02*
X8500000Y-73750000D01*
X5500000Y-57500000D02*
X8500000Y-60500000D01*
X7000000Y-51500000D02*
X5500000Y-53000000D01*
X5500000Y-53000000D02*
X5500000Y-57500000D01*
X7000000Y-30225279D02*
X7000000Y-51500000D01*
X4500000Y-26205000D02*
X4500000Y-27725279D01*
X4500000Y-27725279D02*
X7000000Y-30225279D01*
X454010Y-84045990D02*
X454010Y-102874010D01*
X454010Y-102874010D02*
X4500000Y-106920000D01*
X3750000Y-64260072D02*
X3750000Y-80750000D01*
X3750000Y-80750000D02*
X454010Y-84045990D01*
X4501900Y-62235380D02*
X4501900Y-63508172D01*
X4501900Y-63508172D02*
X3750000Y-64260072D01*
X1500000Y-93750000D02*
X1500000Y-95620000D01*
X1500000Y-95620000D02*
X4500000Y-98620000D01*
X3601901Y-91648099D02*
X1500000Y-93750000D01*
X4501900Y-85860380D02*
X3601901Y-86760379D01*
X3601901Y-86760379D02*
X3601901Y-91648099D01*
D15*
G36*
X8290001Y-109265000D02*
X710000Y-109265000D01*
X710000Y-104204801D01*
X2876421Y-106371222D01*
X2790000Y-106579860D01*
X2790000Y-107260140D01*
X3050332Y-107888637D01*
X3531363Y-108369668D01*
X4159860Y-108630000D01*
X4840140Y-108630000D01*
X5468637Y-108369668D01*
X5949668Y-107888637D01*
X6210000Y-107260140D01*
X6210000Y-106579860D01*
X5949668Y-105951363D01*
X5468637Y-105470332D01*
X4840140Y-105210000D01*
X4159860Y-105210000D01*
X3951222Y-105296421D01*
X1214010Y-102559209D01*
X1214010Y-96408811D01*
X2876421Y-98071222D01*
X2790000Y-98279860D01*
X2790000Y-98960140D01*
X3050332Y-99588637D01*
X3531363Y-100069668D01*
X3556286Y-100079992D01*
X3290620Y-100190034D01*
X2690034Y-100790620D01*
X2365000Y-101575322D01*
X2365000Y-102424678D01*
X2690034Y-103209380D01*
X3290620Y-103809966D01*
X4075322Y-104135000D01*
X4924678Y-104135000D01*
X5709380Y-103809966D01*
X6309966Y-103209380D01*
X6635000Y-102424678D01*
X6635000Y-101575322D01*
X6309966Y-100790620D01*
X5709380Y-100190034D01*
X5443714Y-100079992D01*
X5468637Y-100069668D01*
X5949668Y-99588637D01*
X6210000Y-98960140D01*
X6210000Y-98279860D01*
X5949668Y-97651363D01*
X5468637Y-97170332D01*
X5012737Y-96981492D01*
X5314148Y-96856643D01*
X5400554Y-96600159D01*
X4500000Y-95699605D01*
X4485858Y-95713748D01*
X4306253Y-95534143D01*
X4320395Y-95520000D01*
X4679605Y-95520000D01*
X5580159Y-96420554D01*
X5836643Y-96334148D01*
X6046458Y-95760664D01*
X6020839Y-95150540D01*
X5836643Y-94705852D01*
X5580159Y-94619446D01*
X4679605Y-95520000D01*
X4320395Y-95520000D01*
X3419841Y-94619446D01*
X3163357Y-94705852D01*
X2953542Y-95279336D01*
X2979161Y-95889460D01*
X3074550Y-96119748D01*
X2260000Y-95305199D01*
X2260000Y-94439841D01*
X3599446Y-94439841D01*
X4500000Y-95340395D01*
X5400554Y-94439841D01*
X5314148Y-94183357D01*
X4740664Y-93973542D01*
X4130540Y-93999161D01*
X3685852Y-94183357D01*
X3599446Y-94439841D01*
X2260000Y-94439841D01*
X2260000Y-94064801D01*
X4086374Y-92238428D01*
X4149830Y-92196028D01*
X4317805Y-91944636D01*
X4361901Y-91722951D01*
X4361901Y-91722946D01*
X4376789Y-91648099D01*
X4361901Y-91573252D01*
X4361901Y-87395380D01*
X4807230Y-87395380D01*
X5371407Y-87161690D01*
X5751900Y-86781197D01*
X6132393Y-87161690D01*
X6696570Y-87395380D01*
X7307230Y-87395380D01*
X7871407Y-87161690D01*
X8290001Y-86743096D01*
X8290001Y-109265000D01*
X8290001Y-109265000D01*
G37*
X8290001Y-109265000D02*
X710000Y-109265000D01*
X710000Y-104204801D01*
X2876421Y-106371222D01*
X2790000Y-106579860D01*
X2790000Y-107260140D01*
X3050332Y-107888637D01*
X3531363Y-108369668D01*
X4159860Y-108630000D01*
X4840140Y-108630000D01*
X5468637Y-108369668D01*
X5949668Y-107888637D01*
X6210000Y-107260140D01*
X6210000Y-106579860D01*
X5949668Y-105951363D01*
X5468637Y-105470332D01*
X4840140Y-105210000D01*
X4159860Y-105210000D01*
X3951222Y-105296421D01*
X1214010Y-102559209D01*
X1214010Y-96408811D01*
X2876421Y-98071222D01*
X2790000Y-98279860D01*
X2790000Y-98960140D01*
X3050332Y-99588637D01*
X3531363Y-100069668D01*
X3556286Y-100079992D01*
X3290620Y-100190034D01*
X2690034Y-100790620D01*
X2365000Y-101575322D01*
X2365000Y-102424678D01*
X2690034Y-103209380D01*
X3290620Y-103809966D01*
X4075322Y-104135000D01*
X4924678Y-104135000D01*
X5709380Y-103809966D01*
X6309966Y-103209380D01*
X6635000Y-102424678D01*
X6635000Y-101575322D01*
X6309966Y-100790620D01*
X5709380Y-100190034D01*
X5443714Y-100079992D01*
X5468637Y-100069668D01*
X5949668Y-99588637D01*
X6210000Y-98960140D01*
X6210000Y-98279860D01*
X5949668Y-97651363D01*
X5468637Y-97170332D01*
X5012737Y-96981492D01*
X5314148Y-96856643D01*
X5400554Y-96600159D01*
X4500000Y-95699605D01*
X4485858Y-95713748D01*
X4306253Y-95534143D01*
X4320395Y-95520000D01*
X4679605Y-95520000D01*
X5580159Y-96420554D01*
X5836643Y-96334148D01*
X6046458Y-95760664D01*
X6020839Y-95150540D01*
X5836643Y-94705852D01*
X5580159Y-94619446D01*
X4679605Y-95520000D01*
X4320395Y-95520000D01*
X3419841Y-94619446D01*
X3163357Y-94705852D01*
X2953542Y-95279336D01*
X2979161Y-95889460D01*
X3074550Y-96119748D01*
X2260000Y-95305199D01*
X2260000Y-94439841D01*
X3599446Y-94439841D01*
X4500000Y-95340395D01*
X5400554Y-94439841D01*
X5314148Y-94183357D01*
X4740664Y-93973542D01*
X4130540Y-93999161D01*
X3685852Y-94183357D01*
X3599446Y-94439841D01*
X2260000Y-94439841D01*
X2260000Y-94064801D01*
X4086374Y-92238428D01*
X4149830Y-92196028D01*
X4317805Y-91944636D01*
X4361901Y-91722951D01*
X4361901Y-91722946D01*
X4376789Y-91648099D01*
X4361901Y-91573252D01*
X4361901Y-87395380D01*
X4807230Y-87395380D01*
X5371407Y-87161690D01*
X5751900Y-86781197D01*
X6132393Y-87161690D01*
X6696570Y-87395380D01*
X7307230Y-87395380D01*
X7871407Y-87161690D01*
X8290001Y-86743096D01*
X8290001Y-109265000D01*
G36*
X6132393Y-63536690D02*
X6696570Y-63770380D01*
X7307230Y-63770380D01*
X7740000Y-63591121D01*
X7740001Y-73435196D01*
X5265530Y-75909669D01*
X5202071Y-75952071D01*
X5034096Y-76203464D01*
X4990000Y-76425149D01*
X4990000Y-76425153D01*
X4975112Y-76500000D01*
X4990000Y-76574847D01*
X4990001Y-84401086D01*
X4807230Y-84325380D01*
X4196570Y-84325380D01*
X3632393Y-84559070D01*
X3200590Y-84990873D01*
X3197361Y-84998670D01*
X3082059Y-84959826D01*
X2181505Y-85860380D01*
X2195648Y-85874523D01*
X2016043Y-86054128D01*
X2001900Y-86039985D01*
X1987758Y-86054128D01*
X1808153Y-85874523D01*
X1822295Y-85860380D01*
X1808153Y-85846238D01*
X1987758Y-85666633D01*
X2001900Y-85680775D01*
X2902454Y-84780221D01*
X2816048Y-84523737D01*
X2242564Y-84313922D01*
X1632440Y-84339541D01*
X1214010Y-84512861D01*
X1214010Y-84360791D01*
X4234473Y-81340329D01*
X4297929Y-81297929D01*
X4424739Y-81108145D01*
X4465904Y-81046538D01*
X4475480Y-80998395D01*
X4510000Y-80824852D01*
X4510000Y-80824848D01*
X4524888Y-80750000D01*
X4510000Y-80675152D01*
X4510000Y-64574873D01*
X4986373Y-64098501D01*
X5049829Y-64056101D01*
X5217804Y-63804709D01*
X5261900Y-63583024D01*
X5261900Y-63583020D01*
X5262110Y-63581962D01*
X5371407Y-63536690D01*
X5751900Y-63156197D01*
X6132393Y-63536690D01*
X6132393Y-63536690D01*
G37*
X6132393Y-63536690D02*
X6696570Y-63770380D01*
X7307230Y-63770380D01*
X7740000Y-63591121D01*
X7740001Y-73435196D01*
X5265530Y-75909669D01*
X5202071Y-75952071D01*
X5034096Y-76203464D01*
X4990000Y-76425149D01*
X4990000Y-76425153D01*
X4975112Y-76500000D01*
X4990000Y-76574847D01*
X4990001Y-84401086D01*
X4807230Y-84325380D01*
X4196570Y-84325380D01*
X3632393Y-84559070D01*
X3200590Y-84990873D01*
X3197361Y-84998670D01*
X3082059Y-84959826D01*
X2181505Y-85860380D01*
X2195648Y-85874523D01*
X2016043Y-86054128D01*
X2001900Y-86039985D01*
X1987758Y-86054128D01*
X1808153Y-85874523D01*
X1822295Y-85860380D01*
X1808153Y-85846238D01*
X1987758Y-85666633D01*
X2001900Y-85680775D01*
X2902454Y-84780221D01*
X2816048Y-84523737D01*
X2242564Y-84313922D01*
X1632440Y-84339541D01*
X1214010Y-84512861D01*
X1214010Y-84360791D01*
X4234473Y-81340329D01*
X4297929Y-81297929D01*
X4424739Y-81108145D01*
X4465904Y-81046538D01*
X4475480Y-80998395D01*
X4510000Y-80824852D01*
X4510000Y-80824848D01*
X4524888Y-80750000D01*
X4510000Y-80675152D01*
X4510000Y-64574873D01*
X4986373Y-64098501D01*
X5049829Y-64056101D01*
X5217804Y-63804709D01*
X5261900Y-63583024D01*
X5261900Y-63583020D01*
X5262110Y-63581962D01*
X5371407Y-63536690D01*
X5751900Y-63156197D01*
X6132393Y-63536690D01*
G36*
X3740001Y-53314804D02*
X3740000Y-59658633D01*
X3725112Y-59733480D01*
X3740000Y-59808327D01*
X3740000Y-59808331D01*
X3784096Y-60030016D01*
X3952071Y-60281409D01*
X4015530Y-60323811D01*
X4392099Y-60700380D01*
X4196570Y-60700380D01*
X3632393Y-60934070D01*
X3200590Y-61365873D01*
X3197361Y-61373670D01*
X3082059Y-61334826D01*
X2181505Y-62235380D01*
X3082059Y-63135934D01*
X3197361Y-63097090D01*
X3200590Y-63104887D01*
X3515487Y-63419784D01*
X3265530Y-63669741D01*
X3202071Y-63712143D01*
X3034096Y-63963536D01*
X2990000Y-64185221D01*
X2990000Y-64185225D01*
X2975112Y-64260072D01*
X2990000Y-64334919D01*
X2990001Y-80435197D01*
X2749340Y-80675858D01*
X2749340Y-76860380D01*
X2700057Y-76612615D01*
X2559709Y-76402571D01*
X2349665Y-76262223D01*
X2101900Y-76212940D01*
X710000Y-76212940D01*
X710000Y-63315539D01*
X1101346Y-63315539D01*
X1187752Y-63572023D01*
X1761236Y-63781838D01*
X2371360Y-63756219D01*
X2816048Y-63572023D01*
X2902454Y-63315539D01*
X2001900Y-62414985D01*
X1101346Y-63315539D01*
X710000Y-63315539D01*
X710000Y-63064601D01*
X921741Y-63135934D01*
X1822295Y-62235380D01*
X921741Y-61334826D01*
X710000Y-61406159D01*
X710000Y-61155221D01*
X1101346Y-61155221D01*
X2001900Y-62055775D01*
X2902454Y-61155221D01*
X2816048Y-60898737D01*
X2242564Y-60688922D01*
X1632440Y-60714541D01*
X1187752Y-60898737D01*
X1101346Y-61155221D01*
X710000Y-61155221D01*
X710000Y-57882820D01*
X2101900Y-57882820D01*
X2349665Y-57833537D01*
X2559709Y-57693189D01*
X2700057Y-57483145D01*
X2749340Y-57235380D01*
X2749340Y-53235380D01*
X2700057Y-52987615D01*
X2559709Y-52777571D01*
X2349665Y-52637223D01*
X2101900Y-52587940D01*
X710000Y-52587940D01*
X710000Y-50284801D01*
X3740001Y-53314804D01*
X3740001Y-53314804D01*
G37*
X3740001Y-53314804D02*
X3740000Y-59658633D01*
X3725112Y-59733480D01*
X3740000Y-59808327D01*
X3740000Y-59808331D01*
X3784096Y-60030016D01*
X3952071Y-60281409D01*
X4015530Y-60323811D01*
X4392099Y-60700380D01*
X4196570Y-60700380D01*
X3632393Y-60934070D01*
X3200590Y-61365873D01*
X3197361Y-61373670D01*
X3082059Y-61334826D01*
X2181505Y-62235380D01*
X3082059Y-63135934D01*
X3197361Y-63097090D01*
X3200590Y-63104887D01*
X3515487Y-63419784D01*
X3265530Y-63669741D01*
X3202071Y-63712143D01*
X3034096Y-63963536D01*
X2990000Y-64185221D01*
X2990000Y-64185225D01*
X2975112Y-64260072D01*
X2990000Y-64334919D01*
X2990001Y-80435197D01*
X2749340Y-80675858D01*
X2749340Y-76860380D01*
X2700057Y-76612615D01*
X2559709Y-76402571D01*
X2349665Y-76262223D01*
X2101900Y-76212940D01*
X710000Y-76212940D01*
X710000Y-63315539D01*
X1101346Y-63315539D01*
X1187752Y-63572023D01*
X1761236Y-63781838D01*
X2371360Y-63756219D01*
X2816048Y-63572023D01*
X2902454Y-63315539D01*
X2001900Y-62414985D01*
X1101346Y-63315539D01*
X710000Y-63315539D01*
X710000Y-63064601D01*
X921741Y-63135934D01*
X1822295Y-62235380D01*
X921741Y-61334826D01*
X710000Y-61406159D01*
X710000Y-61155221D01*
X1101346Y-61155221D01*
X2001900Y-62055775D01*
X2902454Y-61155221D01*
X2816048Y-60898737D01*
X2242564Y-60688922D01*
X1632440Y-60714541D01*
X1187752Y-60898737D01*
X1101346Y-61155221D01*
X710000Y-61155221D01*
X710000Y-57882820D01*
X2101900Y-57882820D01*
X2349665Y-57833537D01*
X2559709Y-57693189D01*
X2700057Y-57483145D01*
X2749340Y-57235380D01*
X2749340Y-53235380D01*
X2700057Y-52987615D01*
X2559709Y-52777571D01*
X2349665Y-52637223D01*
X2101900Y-52587940D01*
X710000Y-52587940D01*
X710000Y-50284801D01*
X3740001Y-53314804D01*
G36*
X8290000Y-52587940D02*
X6986862Y-52587940D01*
X7484476Y-52090327D01*
X7547929Y-52047929D01*
X7590327Y-51984476D01*
X7590329Y-51984474D01*
X7715903Y-51796538D01*
X7715904Y-51796537D01*
X7760000Y-51574852D01*
X7760000Y-51574848D01*
X7774888Y-51500001D01*
X7760000Y-51425154D01*
X7760000Y-30300126D01*
X7774888Y-30225279D01*
X7760000Y-30150432D01*
X7760000Y-30150427D01*
X7715904Y-29928742D01*
X7547929Y-29677350D01*
X7484473Y-29634950D01*
X5486414Y-27636891D01*
X5949668Y-27173637D01*
X6210000Y-26545140D01*
X6210000Y-25864860D01*
X5949668Y-25236363D01*
X5468637Y-24755332D01*
X4840140Y-24495000D01*
X4159860Y-24495000D01*
X3531363Y-24755332D01*
X3050332Y-25236363D01*
X2790000Y-25864860D01*
X2790000Y-26545140D01*
X3050332Y-27173637D01*
X3531363Y-27654668D01*
X3727202Y-27735787D01*
X3740001Y-27800131D01*
X3784097Y-28021816D01*
X3952072Y-28273208D01*
X4015528Y-28315608D01*
X4689920Y-28990000D01*
X4075322Y-28990000D01*
X3290620Y-29315034D01*
X2690034Y-29915620D01*
X2365000Y-30700322D01*
X2365000Y-31549678D01*
X2690034Y-32334380D01*
X3290620Y-32934966D01*
X3556286Y-33045008D01*
X3531363Y-33055332D01*
X3050332Y-33536363D01*
X2790000Y-34164860D01*
X2790000Y-34845140D01*
X3050332Y-35473637D01*
X3531363Y-35954668D01*
X3987263Y-36143508D01*
X3685852Y-36268357D01*
X3599446Y-36524841D01*
X4500000Y-37425395D01*
X5400554Y-36524841D01*
X5314148Y-36268357D01*
X4994053Y-36151247D01*
X5468637Y-35954668D01*
X5949668Y-35473637D01*
X6210000Y-34845140D01*
X6210000Y-34164860D01*
X5949668Y-33536363D01*
X5468637Y-33055332D01*
X5443714Y-33045008D01*
X5709380Y-32934966D01*
X6240000Y-32404346D01*
X6240001Y-51185196D01*
X5015530Y-52409669D01*
X5000000Y-52420046D01*
X4984476Y-52409673D01*
X1760000Y-49185199D01*
X1760000Y-38685159D01*
X3599446Y-38685159D01*
X3685852Y-38941643D01*
X4259336Y-39151458D01*
X4869460Y-39125839D01*
X5314148Y-38941643D01*
X5400554Y-38685159D01*
X4500000Y-37784605D01*
X3599446Y-38685159D01*
X1760000Y-38685159D01*
X1760000Y-37364336D01*
X2953542Y-37364336D01*
X2979161Y-37974460D01*
X3163357Y-38419148D01*
X3419841Y-38505554D01*
X4320395Y-37605000D01*
X4679605Y-37605000D01*
X5580159Y-38505554D01*
X5836643Y-38419148D01*
X6046458Y-37845664D01*
X6020839Y-37235540D01*
X5836643Y-36790852D01*
X5580159Y-36704446D01*
X4679605Y-37605000D01*
X4320395Y-37605000D01*
X3419841Y-36704446D01*
X3163357Y-36790852D01*
X2953542Y-37364336D01*
X1760000Y-37364336D01*
X1760000Y-15060159D01*
X3599446Y-15060159D01*
X3685852Y-15316643D01*
X4259336Y-15526458D01*
X4869460Y-15500839D01*
X5314148Y-15316643D01*
X5400554Y-15060159D01*
X4500000Y-14159605D01*
X3599446Y-15060159D01*
X1760000Y-15060159D01*
X1760000Y-13739336D01*
X2953542Y-13739336D01*
X2979161Y-14349460D01*
X3163357Y-14794148D01*
X3419841Y-14880554D01*
X4320395Y-13980000D01*
X4679605Y-13980000D01*
X5580159Y-14880554D01*
X5836643Y-14794148D01*
X6046458Y-14220664D01*
X6020839Y-13610540D01*
X5836643Y-13165852D01*
X5580159Y-13079446D01*
X4679605Y-13980000D01*
X4320395Y-13980000D01*
X3419841Y-13079446D01*
X3163357Y-13165852D01*
X2953542Y-13739336D01*
X1760000Y-13739336D01*
X1760000Y-7075322D01*
X2365000Y-7075322D01*
X2365000Y-7924678D01*
X2690034Y-8709380D01*
X3290620Y-9309966D01*
X3556286Y-9420008D01*
X3531363Y-9430332D01*
X3050332Y-9911363D01*
X2790000Y-10539860D01*
X2790000Y-11220140D01*
X3050332Y-11848637D01*
X3531363Y-12329668D01*
X3987263Y-12518508D01*
X3685852Y-12643357D01*
X3599446Y-12899841D01*
X4500000Y-13800395D01*
X5400554Y-12899841D01*
X5314148Y-12643357D01*
X4994053Y-12526247D01*
X5468637Y-12329668D01*
X5949668Y-11848637D01*
X6210000Y-11220140D01*
X6210000Y-10539860D01*
X5949668Y-9911363D01*
X5468637Y-9430332D01*
X5443714Y-9420008D01*
X5709380Y-9309966D01*
X6309966Y-8709380D01*
X6635000Y-7924678D01*
X6635000Y-7075322D01*
X6309966Y-6290620D01*
X5709380Y-5690034D01*
X4924678Y-5365000D01*
X4075322Y-5365000D01*
X3290620Y-5690034D01*
X2690034Y-6290620D01*
X2365000Y-7075322D01*
X1760000Y-7075322D01*
X1760000Y-6394801D01*
X3951223Y-4203580D01*
X4159860Y-4290000D01*
X4840140Y-4290000D01*
X5468637Y-4029668D01*
X5949668Y-3548637D01*
X6210000Y-2920140D01*
X6210000Y-2239860D01*
X5949668Y-1611363D01*
X5468637Y-1130332D01*
X4840140Y-870000D01*
X4159860Y-870000D01*
X3531363Y-1130332D01*
X3050332Y-1611363D01*
X2790000Y-2239860D01*
X2790000Y-2920140D01*
X2876420Y-3128777D01*
X710000Y-5295199D01*
X710000Y-735000D01*
X8290000Y-735000D01*
X8290000Y-52587940D01*
X8290000Y-52587940D01*
G37*
X8290000Y-52587940D02*
X6986862Y-52587940D01*
X7484476Y-52090327D01*
X7547929Y-52047929D01*
X7590327Y-51984476D01*
X7590329Y-51984474D01*
X7715903Y-51796538D01*
X7715904Y-51796537D01*
X7760000Y-51574852D01*
X7760000Y-51574848D01*
X7774888Y-51500001D01*
X7760000Y-51425154D01*
X7760000Y-30300126D01*
X7774888Y-30225279D01*
X7760000Y-30150432D01*
X7760000Y-30150427D01*
X7715904Y-29928742D01*
X7547929Y-29677350D01*
X7484473Y-29634950D01*
X5486414Y-27636891D01*
X5949668Y-27173637D01*
X6210000Y-26545140D01*
X6210000Y-25864860D01*
X5949668Y-25236363D01*
X5468637Y-24755332D01*
X4840140Y-24495000D01*
X4159860Y-24495000D01*
X3531363Y-24755332D01*
X3050332Y-25236363D01*
X2790000Y-25864860D01*
X2790000Y-26545140D01*
X3050332Y-27173637D01*
X3531363Y-27654668D01*
X3727202Y-27735787D01*
X3740001Y-27800131D01*
X3784097Y-28021816D01*
X3952072Y-28273208D01*
X4015528Y-28315608D01*
X4689920Y-28990000D01*
X4075322Y-28990000D01*
X3290620Y-29315034D01*
X2690034Y-29915620D01*
X2365000Y-30700322D01*
X2365000Y-31549678D01*
X2690034Y-32334380D01*
X3290620Y-32934966D01*
X3556286Y-33045008D01*
X3531363Y-33055332D01*
X3050332Y-33536363D01*
X2790000Y-34164860D01*
X2790000Y-34845140D01*
X3050332Y-35473637D01*
X3531363Y-35954668D01*
X3987263Y-36143508D01*
X3685852Y-36268357D01*
X3599446Y-36524841D01*
X4500000Y-37425395D01*
X5400554Y-36524841D01*
X5314148Y-36268357D01*
X4994053Y-36151247D01*
X5468637Y-35954668D01*
X5949668Y-35473637D01*
X6210000Y-34845140D01*
X6210000Y-34164860D01*
X5949668Y-33536363D01*
X5468637Y-33055332D01*
X5443714Y-33045008D01*
X5709380Y-32934966D01*
X6240000Y-32404346D01*
X6240001Y-51185196D01*
X5015530Y-52409669D01*
X5000000Y-52420046D01*
X4984476Y-52409673D01*
X1760000Y-49185199D01*
X1760000Y-38685159D01*
X3599446Y-38685159D01*
X3685852Y-38941643D01*
X4259336Y-39151458D01*
X4869460Y-39125839D01*
X5314148Y-38941643D01*
X5400554Y-38685159D01*
X4500000Y-37784605D01*
X3599446Y-38685159D01*
X1760000Y-38685159D01*
X1760000Y-37364336D01*
X2953542Y-37364336D01*
X2979161Y-37974460D01*
X3163357Y-38419148D01*
X3419841Y-38505554D01*
X4320395Y-37605000D01*
X4679605Y-37605000D01*
X5580159Y-38505554D01*
X5836643Y-38419148D01*
X6046458Y-37845664D01*
X6020839Y-37235540D01*
X5836643Y-36790852D01*
X5580159Y-36704446D01*
X4679605Y-37605000D01*
X4320395Y-37605000D01*
X3419841Y-36704446D01*
X3163357Y-36790852D01*
X2953542Y-37364336D01*
X1760000Y-37364336D01*
X1760000Y-15060159D01*
X3599446Y-15060159D01*
X3685852Y-15316643D01*
X4259336Y-15526458D01*
X4869460Y-15500839D01*
X5314148Y-15316643D01*
X5400554Y-15060159D01*
X4500000Y-14159605D01*
X3599446Y-15060159D01*
X1760000Y-15060159D01*
X1760000Y-13739336D01*
X2953542Y-13739336D01*
X2979161Y-14349460D01*
X3163357Y-14794148D01*
X3419841Y-14880554D01*
X4320395Y-13980000D01*
X4679605Y-13980000D01*
X5580159Y-14880554D01*
X5836643Y-14794148D01*
X6046458Y-14220664D01*
X6020839Y-13610540D01*
X5836643Y-13165852D01*
X5580159Y-13079446D01*
X4679605Y-13980000D01*
X4320395Y-13980000D01*
X3419841Y-13079446D01*
X3163357Y-13165852D01*
X2953542Y-13739336D01*
X1760000Y-13739336D01*
X1760000Y-7075322D01*
X2365000Y-7075322D01*
X2365000Y-7924678D01*
X2690034Y-8709380D01*
X3290620Y-9309966D01*
X3556286Y-9420008D01*
X3531363Y-9430332D01*
X3050332Y-9911363D01*
X2790000Y-10539860D01*
X2790000Y-11220140D01*
X3050332Y-11848637D01*
X3531363Y-12329668D01*
X3987263Y-12518508D01*
X3685852Y-12643357D01*
X3599446Y-12899841D01*
X4500000Y-13800395D01*
X5400554Y-12899841D01*
X5314148Y-12643357D01*
X4994053Y-12526247D01*
X5468637Y-12329668D01*
X5949668Y-11848637D01*
X6210000Y-11220140D01*
X6210000Y-10539860D01*
X5949668Y-9911363D01*
X5468637Y-9430332D01*
X5443714Y-9420008D01*
X5709380Y-9309966D01*
X6309966Y-8709380D01*
X6635000Y-7924678D01*
X6635000Y-7075322D01*
X6309966Y-6290620D01*
X5709380Y-5690034D01*
X4924678Y-5365000D01*
X4075322Y-5365000D01*
X3290620Y-5690034D01*
X2690034Y-6290620D01*
X2365000Y-7075322D01*
X1760000Y-7075322D01*
X1760000Y-6394801D01*
X3951223Y-4203580D01*
X4159860Y-4290000D01*
X4840140Y-4290000D01*
X5468637Y-4029668D01*
X5949668Y-3548637D01*
X6210000Y-2920140D01*
X6210000Y-2239860D01*
X5949668Y-1611363D01*
X5468637Y-1130332D01*
X4840140Y-870000D01*
X4159860Y-870000D01*
X3531363Y-1130332D01*
X3050332Y-1611363D01*
X2790000Y-2239860D01*
X2790000Y-2920140D01*
X2876420Y-3128777D01*
X710000Y-5295199D01*
X710000Y-735000D01*
X8290000Y-735000D01*
X8290000Y-52587940D01*
M02*
