G04 #@! TF.GenerationSoftware,KiCad,Pcbnew,(2018-02-10 revision a04965c)-master*
G04 #@! TF.CreationDate,2018-05-21T22:22:13-05:00*
G04 #@! TF.ProjectId,PSO_panel_rev1,50534F5F70616E656C5F726576312E6B,rev?*
G04 #@! TF.SameCoordinates,Original*
G04 #@! TF.FileFunction,Legend,Top*
G04 #@! TF.FilePolarity,Positive*
%FSLAX46Y46*%
G04 Gerber Fmt 4.6, Leading zero omitted, Abs format (unit mm)*
G04 Created by KiCad (PCBNEW (2018-02-10 revision a04965c)-master) date Monday, May 21, 2018 at 10:22:13 PM*
%MOMM*%
%LPD*%
G01*
G04 APERTURE LIST*
%ADD10C,0.150000*%
G04 APERTURE END LIST*
D10*
G36*
X13500000Y-91250000D02*
X4000000Y-96750000D01*
X4250000Y-101500000D01*
X13000000Y-103500000D01*
X13250000Y-99750000D01*
X13500000Y-91250000D01*
G37*
X13500000Y-91250000D02*
X4000000Y-96750000D01*
X4250000Y-101500000D01*
X13000000Y-103500000D01*
X13250000Y-99750000D01*
X13500000Y-91250000D01*
G36*
X19250000Y-52750000D02*
X2750000Y-50500000D01*
X17750000Y-56250000D01*
X19250000Y-52750000D01*
G37*
X19250000Y-52750000D02*
X2750000Y-50500000D01*
X17750000Y-56250000D01*
X19250000Y-52750000D01*
G36*
X-6250000Y-102750000D02*
X5500000Y-106750000D01*
X5500000Y-118750000D01*
X-6250000Y-121250000D01*
X-6000000Y-102750000D01*
X-6250000Y-102750000D01*
G37*
X-6250000Y-102750000D02*
X5500000Y-106750000D01*
X5500000Y-118750000D01*
X-6250000Y-121250000D01*
X-6000000Y-102750000D01*
X-6250000Y-102750000D01*
G36*
X12750000Y-75000000D02*
X2250000Y-76000000D01*
X13000000Y-83500000D01*
X12750000Y-75000000D01*
G37*
X12750000Y-75000000D02*
X2250000Y-76000000D01*
X13000000Y-83500000D01*
X12750000Y-75000000D01*
G36*
X13000000Y-57000000D02*
X-2250000Y-61000000D01*
X1750000Y-74500000D01*
X6250000Y-73000000D01*
X9250000Y-70000000D01*
X12750000Y-57000000D01*
X13000000Y-57000000D01*
G37*
X13000000Y-57000000D02*
X-2250000Y-61000000D01*
X1750000Y-74500000D01*
X6250000Y-73000000D01*
X9250000Y-70000000D01*
X12750000Y-57000000D01*
X13000000Y-57000000D01*
G36*
X15500000Y-28000000D02*
X500000Y-33000000D01*
X13500000Y-40250000D01*
X13500000Y-40500000D01*
X15500000Y-28000000D01*
G37*
X15500000Y-28000000D02*
X500000Y-33000000D01*
X13500000Y-40250000D01*
X13500000Y-40500000D01*
X15500000Y-28000000D01*
G36*
X-7000000Y-135000000D02*
X4000000Y-122750000D01*
X6000000Y-133500000D01*
X-6750000Y-134500000D01*
X-7000000Y-135000000D01*
G37*
X-7000000Y-135000000D02*
X4000000Y-122750000D01*
X6000000Y-133500000D01*
X-6750000Y-134500000D01*
X-7000000Y-135000000D01*
G36*
X16000000Y2750000D02*
X-3250000Y-5000000D01*
X14250000Y-5000000D01*
X15750000Y2500000D01*
X16000000Y2750000D01*
G37*
X16000000Y2750000D02*
X-3250000Y-5000000D01*
X14250000Y-5000000D01*
X15750000Y2500000D01*
X16000000Y2750000D01*
G36*
X14000000Y-10750000D02*
X-2000000Y-12750000D01*
X1000000Y-28750000D01*
X8750000Y-25750000D01*
X13250000Y-10750000D01*
X14000000Y-10750000D01*
G37*
X14000000Y-10750000D02*
X-2000000Y-12750000D01*
X1000000Y-28750000D01*
X8750000Y-25750000D01*
X13250000Y-10750000D01*
X14000000Y-10750000D01*
X3666666Y-17202380D02*
X3333333Y-16726190D01*
X3095238Y-17202380D02*
X3095238Y-16202380D01*
X3476190Y-16202380D01*
X3571428Y-16250000D01*
X3619047Y-16297619D01*
X3666666Y-16392857D01*
X3666666Y-16535714D01*
X3619047Y-16630952D01*
X3571428Y-16678571D01*
X3476190Y-16726190D01*
X3095238Y-16726190D01*
X4095238Y-16678571D02*
X4428571Y-16678571D01*
X4571428Y-17202380D02*
X4095238Y-17202380D01*
X4095238Y-16202380D01*
X4571428Y-16202380D01*
X5333333Y-16678571D02*
X5000000Y-16678571D01*
X5000000Y-17202380D02*
X5000000Y-16202380D01*
X5476190Y-16202380D01*
X6000000Y-16202380D02*
X6000000Y-16440476D01*
X5761904Y-16345238D02*
X6000000Y-16440476D01*
X6238095Y-16345238D01*
X5857142Y-16630952D02*
X6000000Y-16440476D01*
X6142857Y-16630952D01*
X6761904Y-16202380D02*
X6761904Y-16440476D01*
X6523809Y-16345238D02*
X6761904Y-16440476D01*
X7000000Y-16345238D01*
X6619047Y-16630952D02*
X6761904Y-16440476D01*
X6904761Y-16630952D01*
X3666666Y-40827380D02*
X3333333Y-40351190D01*
X3095238Y-40827380D02*
X3095238Y-39827380D01*
X3476190Y-39827380D01*
X3571428Y-39875000D01*
X3619047Y-39922619D01*
X3666666Y-40017857D01*
X3666666Y-40160714D01*
X3619047Y-40255952D01*
X3571428Y-40303571D01*
X3476190Y-40351190D01*
X3095238Y-40351190D01*
X4095238Y-40303571D02*
X4428571Y-40303571D01*
X4571428Y-40827380D02*
X4095238Y-40827380D01*
X4095238Y-39827380D01*
X4571428Y-39827380D01*
X5333333Y-40303571D02*
X5000000Y-40303571D01*
X5000000Y-40827380D02*
X5000000Y-39827380D01*
X5476190Y-39827380D01*
X6000000Y-39827380D02*
X6000000Y-40065476D01*
X5761904Y-39970238D02*
X6000000Y-40065476D01*
X6238095Y-39970238D01*
X5857142Y-40255952D02*
X6000000Y-40065476D01*
X6142857Y-40255952D01*
X6761904Y-39827380D02*
X6761904Y-40065476D01*
X6523809Y-39970238D02*
X6761904Y-40065476D01*
X7000000Y-39970238D01*
X6619047Y-40255952D02*
X6761904Y-40065476D01*
X6904761Y-40255952D01*
X3666666Y-64452380D02*
X3333333Y-63976190D01*
X3095238Y-64452380D02*
X3095238Y-63452380D01*
X3476190Y-63452380D01*
X3571428Y-63500000D01*
X3619047Y-63547619D01*
X3666666Y-63642857D01*
X3666666Y-63785714D01*
X3619047Y-63880952D01*
X3571428Y-63928571D01*
X3476190Y-63976190D01*
X3095238Y-63976190D01*
X4095238Y-63928571D02*
X4428571Y-63928571D01*
X4571428Y-64452380D02*
X4095238Y-64452380D01*
X4095238Y-63452380D01*
X4571428Y-63452380D01*
X5333333Y-63928571D02*
X5000000Y-63928571D01*
X5000000Y-64452380D02*
X5000000Y-63452380D01*
X5476190Y-63452380D01*
X6000000Y-63452380D02*
X6000000Y-63690476D01*
X5761904Y-63595238D02*
X6000000Y-63690476D01*
X6238095Y-63595238D01*
X5857142Y-63880952D02*
X6000000Y-63690476D01*
X6142857Y-63880952D01*
X6761904Y-63452380D02*
X6761904Y-63690476D01*
X6523809Y-63595238D02*
X6761904Y-63690476D01*
X7000000Y-63595238D01*
X6619047Y-63880952D02*
X6761904Y-63690476D01*
X6904761Y-63880952D01*
X3666666Y-88077380D02*
X3333333Y-87601190D01*
X3095238Y-88077380D02*
X3095238Y-87077380D01*
X3476190Y-87077380D01*
X3571428Y-87125000D01*
X3619047Y-87172619D01*
X3666666Y-87267857D01*
X3666666Y-87410714D01*
X3619047Y-87505952D01*
X3571428Y-87553571D01*
X3476190Y-87601190D01*
X3095238Y-87601190D01*
X4095238Y-87553571D02*
X4428571Y-87553571D01*
X4571428Y-88077380D02*
X4095238Y-88077380D01*
X4095238Y-87077380D01*
X4571428Y-87077380D01*
X5333333Y-87553571D02*
X5000000Y-87553571D01*
X5000000Y-88077380D02*
X5000000Y-87077380D01*
X5476190Y-87077380D01*
X6000000Y-87077380D02*
X6000000Y-87315476D01*
X5761904Y-87220238D02*
X6000000Y-87315476D01*
X6238095Y-87220238D01*
X5857142Y-87505952D02*
X6000000Y-87315476D01*
X6142857Y-87505952D01*
X6761904Y-87077380D02*
X6761904Y-87315476D01*
X6523809Y-87220238D02*
X6761904Y-87315476D01*
X7000000Y-87220238D01*
X6619047Y-87505952D02*
X6761904Y-87315476D01*
X6904761Y-87505952D01*
X3666666Y-111702380D02*
X3333333Y-111226190D01*
X3095238Y-111702380D02*
X3095238Y-110702380D01*
X3476190Y-110702380D01*
X3571428Y-110750000D01*
X3619047Y-110797619D01*
X3666666Y-110892857D01*
X3666666Y-111035714D01*
X3619047Y-111130952D01*
X3571428Y-111178571D01*
X3476190Y-111226190D01*
X3095238Y-111226190D01*
X4095238Y-111178571D02*
X4428571Y-111178571D01*
X4571428Y-111702380D02*
X4095238Y-111702380D01*
X4095238Y-110702380D01*
X4571428Y-110702380D01*
X5333333Y-111178571D02*
X5000000Y-111178571D01*
X5000000Y-111702380D02*
X5000000Y-110702380D01*
X5476190Y-110702380D01*
X6000000Y-110702380D02*
X6000000Y-110940476D01*
X5761904Y-110845238D02*
X6000000Y-110940476D01*
X6238095Y-110845238D01*
X5857142Y-111130952D02*
X6000000Y-110940476D01*
X6142857Y-111130952D01*
X6761904Y-110702380D02*
X6761904Y-110940476D01*
X6523809Y-110845238D02*
X6761904Y-110940476D01*
X7000000Y-110845238D01*
X6619047Y-111130952D02*
X6761904Y-110940476D01*
X6904761Y-111130952D01*
M02*
