G04 #@! TF.GenerationSoftware,KiCad,Pcbnew,(2018-02-10 revision a04965c)-master*
G04 #@! TF.CreationDate,2018-05-21T22:22:13-05:00*
G04 #@! TF.ProjectId,PSO_panel_rev1,50534F5F70616E656C5F726576312E6B,rev?*
G04 #@! TF.SameCoordinates,Original*
G04 #@! TF.FileFunction,Copper,L1,Top,Signal*
G04 #@! TF.FilePolarity,Positive*
%FSLAX46Y46*%
G04 Gerber Fmt 4.6, Leading zero omitted, Abs format (unit mm)*
G04 Created by KiCad (PCBNEW (2018-02-10 revision a04965c)-master) date Monday, May 21, 2018 at 10:22:13 PM*
%MOMM*%
%LPD*%
G01*
G04 APERTURE LIST*
%ADD10C,6.200000*%
%ADD11C,3.200000*%
%ADD12C,0.254000*%
G04 APERTURE END LIST*
D10*
X5000000Y-16990000D03*
X5000000Y-40615000D03*
X5000000Y-64240000D03*
X5000000Y-87865000D03*
X5000000Y-111490000D03*
D11*
X5000000Y-3248000D03*
X5000000Y-125748000D03*
D12*
G36*
X-201999Y-128480102D02*
X-205957Y-128500000D01*
X-190279Y-128578816D01*
X-145634Y-128645634D01*
X-78816Y-128690279D01*
X-19893Y-128702000D01*
X-19892Y-128702000D01*
X0Y-128705957D01*
X19893Y-128702000D01*
X9980108Y-128702000D01*
X10000000Y-128705957D01*
X10078816Y-128690279D01*
X10145634Y-128645634D01*
X10190279Y-128578816D01*
X10202000Y-128519893D01*
X10205957Y-128500000D01*
X10202000Y-128480107D01*
X10202000Y-127406952D01*
X11507063Y-129364547D01*
X-2474389Y-128882428D01*
X-201999Y-126342698D01*
X-201999Y-128480102D01*
X-201999Y-128480102D01*
G37*
X-201999Y-128480102D02*
X-205957Y-128500000D01*
X-190279Y-128578816D01*
X-145634Y-128645634D01*
X-78816Y-128690279D01*
X-19893Y-128702000D01*
X-19892Y-128702000D01*
X0Y-128705957D01*
X19893Y-128702000D01*
X9980108Y-128702000D01*
X10000000Y-128705957D01*
X10078816Y-128690279D01*
X10145634Y-128645634D01*
X10190279Y-128578816D01*
X10202000Y-128519893D01*
X10205957Y-128500000D01*
X10202000Y-128480107D01*
X10202000Y-127406952D01*
X11507063Y-129364547D01*
X-2474389Y-128882428D01*
X-201999Y-126342698D01*
X-201999Y-128480102D01*
G36*
X9798000Y-849653D02*
X8378616Y-5462651D01*
X8373563Y-5511946D01*
X8387759Y-5559422D01*
X8427170Y-5604042D01*
X9798000Y-6563623D01*
X9798000Y-20577091D01*
X8646935Y-22175793D01*
X8626383Y-22220883D01*
X8624650Y-22270406D01*
X8656680Y-22336142D01*
X9798000Y-23572572D01*
X9798000Y-46898961D01*
X6670664Y-49400830D01*
X6638752Y-49438739D01*
X6623777Y-49485975D01*
X6628018Y-49535346D01*
X6650830Y-49579336D01*
X6699504Y-49616530D01*
X9798000Y-50959212D01*
X9798000Y-56148961D01*
X6670664Y-58650830D01*
X6638752Y-58688739D01*
X6623777Y-58735975D01*
X6628018Y-58785346D01*
X6650830Y-58829336D01*
X6669116Y-58847912D01*
X9798000Y-61432643D01*
X9798001Y-65848145D01*
X8663346Y-66907156D01*
X8634412Y-66947385D01*
X8623075Y-66995623D01*
X8631062Y-67044528D01*
X8657156Y-67086654D01*
X8686990Y-67110267D01*
X9798001Y-67745130D01*
X9798001Y-70798961D01*
X7170664Y-72900830D01*
X7138752Y-72938739D01*
X7123777Y-72985975D01*
X7128018Y-73035346D01*
X7150830Y-73079336D01*
X7188739Y-73111248D01*
X7259048Y-73126677D01*
X9798001Y-72945323D01*
X9798001Y-95199500D01*
X7640020Y-98936491D01*
X7624088Y-98983412D01*
X7627325Y-99032859D01*
X7649237Y-99077304D01*
X7686491Y-99109980D01*
X7733412Y-99125912D01*
X7782859Y-99122675D01*
X7827304Y-99100763D01*
X7848566Y-99080085D01*
X9798001Y-96680781D01*
X9798001Y-102430085D01*
X7024907Y-101875466D01*
X6975354Y-101875414D01*
X6929553Y-101894330D01*
X6894477Y-101929332D01*
X6875466Y-101975093D01*
X6875414Y-102024646D01*
X6894330Y-102070447D01*
X6946977Y-102115402D01*
X9798001Y-103425332D01*
X9798001Y-105261609D01*
X8766785Y-105124114D01*
X8717333Y-105127273D01*
X8672854Y-105149117D01*
X8640120Y-105186318D01*
X8624114Y-105233215D01*
X8627273Y-105282667D01*
X8649117Y-105327146D01*
X8680786Y-105356482D01*
X9798001Y-106082672D01*
X9798001Y-122257710D01*
X7232039Y-122624276D01*
X7185294Y-122640720D01*
X7148400Y-122673800D01*
X7126973Y-122718481D01*
X7124276Y-122767961D01*
X7144330Y-122820447D01*
X9798001Y-126800954D01*
X9798001Y-128298000D01*
X202000Y-128298000D01*
X202000Y-125891170D01*
X673055Y-125364696D01*
X3073000Y-125364696D01*
X3073000Y-126131304D01*
X3366368Y-126839558D01*
X3908442Y-127381632D01*
X4616696Y-127675000D01*
X5383304Y-127675000D01*
X6091558Y-127381632D01*
X6633632Y-126839558D01*
X6927000Y-126131304D01*
X6927000Y-125364696D01*
X6633632Y-124656442D01*
X6091558Y-124114368D01*
X5383304Y-123821000D01*
X4616696Y-123821000D01*
X3908442Y-124114368D01*
X3366368Y-124656442D01*
X3073000Y-125364696D01*
X673055Y-125364696D01*
X1594646Y-124334683D01*
X1619848Y-124292018D01*
X1626804Y-124242955D01*
X1614456Y-124194966D01*
X1576967Y-124148980D01*
X202000Y-123101386D01*
X202000Y-118730425D01*
X4049114Y-117117119D01*
X4090195Y-117089408D01*
X4117544Y-117048086D01*
X4126999Y-116999444D01*
X4117119Y-116950886D01*
X4086540Y-116907049D01*
X202000Y-113290408D01*
X202000Y-110808327D01*
X1573000Y-110808327D01*
X1573000Y-112171673D01*
X2094730Y-113431240D01*
X3058760Y-114395270D01*
X4318327Y-114917000D01*
X5681673Y-114917000D01*
X6941240Y-114395270D01*
X7905270Y-113431240D01*
X8427000Y-112171673D01*
X8427000Y-110808327D01*
X7905270Y-109548760D01*
X6941240Y-108584730D01*
X5681673Y-108063000D01*
X4318327Y-108063000D01*
X3058760Y-108584730D01*
X2094730Y-109548760D01*
X1573000Y-110808327D01*
X202000Y-110808327D01*
X202000Y-108462438D01*
X3062053Y-106860808D01*
X3099734Y-106828627D01*
X3122231Y-106784475D01*
X3126120Y-106735075D01*
X3110808Y-106687947D01*
X3078627Y-106650266D01*
X3041955Y-106630130D01*
X202000Y-105636146D01*
X202000Y-103652347D01*
X3571544Y-101354931D01*
X3606253Y-101319565D01*
X3624786Y-101273608D01*
X3624322Y-101224057D01*
X3604931Y-101178456D01*
X3569565Y-101143747D01*
X3504377Y-101123075D01*
X202000Y-101009200D01*
X202000Y-95026268D01*
X1607145Y-92818183D01*
X1625082Y-92771990D01*
X1623976Y-92722450D01*
X1603996Y-92677103D01*
X1568183Y-92642855D01*
X1521990Y-92624918D01*
X1490260Y-92623374D01*
X202000Y-92722471D01*
X202000Y-87183327D01*
X1573000Y-87183327D01*
X1573000Y-88546673D01*
X2094730Y-89806240D01*
X3058760Y-90770270D01*
X4318327Y-91292000D01*
X5681673Y-91292000D01*
X6941240Y-90770270D01*
X7905270Y-89806240D01*
X8427000Y-88546673D01*
X8427000Y-87183327D01*
X7905270Y-85923760D01*
X6941240Y-84959730D01*
X5681673Y-84438000D01*
X4318327Y-84438000D01*
X3058760Y-84959730D01*
X2094730Y-85923760D01*
X1573000Y-87183327D01*
X202000Y-87183327D01*
X202000Y-78980172D01*
X2800028Y-77866731D01*
X2840891Y-77838701D01*
X2867917Y-77797167D01*
X2876991Y-77748452D01*
X2858902Y-77684659D01*
X608902Y-73934659D01*
X566560Y-73891839D01*
X202000Y-73667494D01*
X202000Y-71681409D01*
X969198Y-71873208D01*
X1018692Y-71875617D01*
X1065341Y-71858902D01*
X1102042Y-71825607D01*
X1123208Y-71780802D01*
X1126930Y-71754231D01*
X1376930Y-64254231D01*
X1368887Y-64205335D01*
X1342744Y-64163239D01*
X1302483Y-64134352D01*
X1254231Y-64123070D01*
X1193204Y-64136408D01*
X202000Y-64632010D01*
X202000Y-63558327D01*
X1573000Y-63558327D01*
X1573000Y-64921673D01*
X2094730Y-66181240D01*
X3058760Y-67145270D01*
X4318327Y-67667000D01*
X5681673Y-67667000D01*
X6941240Y-67145270D01*
X7905270Y-66181240D01*
X8427000Y-64921673D01*
X8427000Y-63558327D01*
X7905270Y-62298760D01*
X6941240Y-61334730D01*
X5681673Y-60813000D01*
X4318327Y-60813000D01*
X3058760Y-61334730D01*
X2094730Y-62298760D01*
X1573000Y-63558327D01*
X202000Y-63558327D01*
X202000Y-48205822D01*
X2476992Y-48624899D01*
X2526540Y-48624196D01*
X2572048Y-48604585D01*
X2606587Y-48569053D01*
X2624899Y-48523008D01*
X2624196Y-48473460D01*
X2604585Y-48427952D01*
X2586654Y-48407156D01*
X202000Y-46181479D01*
X202000Y-39933327D01*
X1573000Y-39933327D01*
X1573000Y-41296673D01*
X2094730Y-42556240D01*
X3058760Y-43520270D01*
X4318327Y-44042000D01*
X5681673Y-44042000D01*
X6941240Y-43520270D01*
X7905270Y-42556240D01*
X8427000Y-41296673D01*
X8427000Y-39933327D01*
X7905270Y-38673760D01*
X6941240Y-37709730D01*
X5681673Y-37188000D01*
X4318327Y-37188000D01*
X3058760Y-37709730D01*
X2094730Y-38673760D01*
X1573000Y-39933327D01*
X202000Y-39933327D01*
X202000Y-38291554D01*
X2349574Y-35578829D01*
X2372161Y-35534724D01*
X2376150Y-35485331D01*
X2360934Y-35438172D01*
X2328829Y-35400426D01*
X2284724Y-35377839D01*
X2255287Y-35373110D01*
X202000Y-35287556D01*
X202000Y-28398591D01*
X2049484Y-27616963D01*
X2090477Y-27589123D01*
X2117696Y-27547715D01*
X2126996Y-27499042D01*
X2113592Y-27443204D01*
X644770Y-24505561D01*
X2108902Y-22065341D01*
X2125617Y-22018692D01*
X2123748Y-21971443D01*
X816876Y-16308327D01*
X1573000Y-16308327D01*
X1573000Y-17671673D01*
X2094730Y-18931240D01*
X3058760Y-19895270D01*
X4318327Y-20417000D01*
X5681673Y-20417000D01*
X6941240Y-19895270D01*
X7905270Y-18931240D01*
X8427000Y-17671673D01*
X8427000Y-16308327D01*
X7905270Y-15048760D01*
X6941240Y-14084730D01*
X5681673Y-13563000D01*
X4318327Y-13563000D01*
X3058760Y-14084730D01*
X2094730Y-15048760D01*
X1573000Y-16308327D01*
X816876Y-16308327D01*
X623748Y-15471443D01*
X596426Y-15417349D01*
X202000Y-14957185D01*
X202000Y-9678418D01*
X520879Y-9625272D01*
X567229Y-9607746D01*
X603344Y-9573817D01*
X626561Y-9510547D01*
X876561Y-6510547D01*
X870963Y-6461311D01*
X831303Y-6402436D01*
X202000Y-5878017D01*
X202000Y-2864696D01*
X3073000Y-2864696D01*
X3073000Y-3631304D01*
X3366368Y-4339558D01*
X3908442Y-4881632D01*
X4616696Y-5175000D01*
X5383304Y-5175000D01*
X6091558Y-4881632D01*
X6633632Y-4339558D01*
X6927000Y-3631304D01*
X6927000Y-2864696D01*
X6633632Y-2156442D01*
X6091558Y-1614368D01*
X5383304Y-1321000D01*
X4616696Y-1321000D01*
X3908442Y-1614368D01*
X3366368Y-2156442D01*
X3073000Y-2864696D01*
X202000Y-2864696D01*
X202000Y-202000D01*
X9798000Y-202000D01*
X9798000Y-849653D01*
X9798000Y-849653D01*
G37*
X9798000Y-849653D02*
X8378616Y-5462651D01*
X8373563Y-5511946D01*
X8387759Y-5559422D01*
X8427170Y-5604042D01*
X9798000Y-6563623D01*
X9798000Y-20577091D01*
X8646935Y-22175793D01*
X8626383Y-22220883D01*
X8624650Y-22270406D01*
X8656680Y-22336142D01*
X9798000Y-23572572D01*
X9798000Y-46898961D01*
X6670664Y-49400830D01*
X6638752Y-49438739D01*
X6623777Y-49485975D01*
X6628018Y-49535346D01*
X6650830Y-49579336D01*
X6699504Y-49616530D01*
X9798000Y-50959212D01*
X9798000Y-56148961D01*
X6670664Y-58650830D01*
X6638752Y-58688739D01*
X6623777Y-58735975D01*
X6628018Y-58785346D01*
X6650830Y-58829336D01*
X6669116Y-58847912D01*
X9798000Y-61432643D01*
X9798001Y-65848145D01*
X8663346Y-66907156D01*
X8634412Y-66947385D01*
X8623075Y-66995623D01*
X8631062Y-67044528D01*
X8657156Y-67086654D01*
X8686990Y-67110267D01*
X9798001Y-67745130D01*
X9798001Y-70798961D01*
X7170664Y-72900830D01*
X7138752Y-72938739D01*
X7123777Y-72985975D01*
X7128018Y-73035346D01*
X7150830Y-73079336D01*
X7188739Y-73111248D01*
X7259048Y-73126677D01*
X9798001Y-72945323D01*
X9798001Y-95199500D01*
X7640020Y-98936491D01*
X7624088Y-98983412D01*
X7627325Y-99032859D01*
X7649237Y-99077304D01*
X7686491Y-99109980D01*
X7733412Y-99125912D01*
X7782859Y-99122675D01*
X7827304Y-99100763D01*
X7848566Y-99080085D01*
X9798001Y-96680781D01*
X9798001Y-102430085D01*
X7024907Y-101875466D01*
X6975354Y-101875414D01*
X6929553Y-101894330D01*
X6894477Y-101929332D01*
X6875466Y-101975093D01*
X6875414Y-102024646D01*
X6894330Y-102070447D01*
X6946977Y-102115402D01*
X9798001Y-103425332D01*
X9798001Y-105261609D01*
X8766785Y-105124114D01*
X8717333Y-105127273D01*
X8672854Y-105149117D01*
X8640120Y-105186318D01*
X8624114Y-105233215D01*
X8627273Y-105282667D01*
X8649117Y-105327146D01*
X8680786Y-105356482D01*
X9798001Y-106082672D01*
X9798001Y-122257710D01*
X7232039Y-122624276D01*
X7185294Y-122640720D01*
X7148400Y-122673800D01*
X7126973Y-122718481D01*
X7124276Y-122767961D01*
X7144330Y-122820447D01*
X9798001Y-126800954D01*
X9798001Y-128298000D01*
X202000Y-128298000D01*
X202000Y-125891170D01*
X673055Y-125364696D01*
X3073000Y-125364696D01*
X3073000Y-126131304D01*
X3366368Y-126839558D01*
X3908442Y-127381632D01*
X4616696Y-127675000D01*
X5383304Y-127675000D01*
X6091558Y-127381632D01*
X6633632Y-126839558D01*
X6927000Y-126131304D01*
X6927000Y-125364696D01*
X6633632Y-124656442D01*
X6091558Y-124114368D01*
X5383304Y-123821000D01*
X4616696Y-123821000D01*
X3908442Y-124114368D01*
X3366368Y-124656442D01*
X3073000Y-125364696D01*
X673055Y-125364696D01*
X1594646Y-124334683D01*
X1619848Y-124292018D01*
X1626804Y-124242955D01*
X1614456Y-124194966D01*
X1576967Y-124148980D01*
X202000Y-123101386D01*
X202000Y-118730425D01*
X4049114Y-117117119D01*
X4090195Y-117089408D01*
X4117544Y-117048086D01*
X4126999Y-116999444D01*
X4117119Y-116950886D01*
X4086540Y-116907049D01*
X202000Y-113290408D01*
X202000Y-110808327D01*
X1573000Y-110808327D01*
X1573000Y-112171673D01*
X2094730Y-113431240D01*
X3058760Y-114395270D01*
X4318327Y-114917000D01*
X5681673Y-114917000D01*
X6941240Y-114395270D01*
X7905270Y-113431240D01*
X8427000Y-112171673D01*
X8427000Y-110808327D01*
X7905270Y-109548760D01*
X6941240Y-108584730D01*
X5681673Y-108063000D01*
X4318327Y-108063000D01*
X3058760Y-108584730D01*
X2094730Y-109548760D01*
X1573000Y-110808327D01*
X202000Y-110808327D01*
X202000Y-108462438D01*
X3062053Y-106860808D01*
X3099734Y-106828627D01*
X3122231Y-106784475D01*
X3126120Y-106735075D01*
X3110808Y-106687947D01*
X3078627Y-106650266D01*
X3041955Y-106630130D01*
X202000Y-105636146D01*
X202000Y-103652347D01*
X3571544Y-101354931D01*
X3606253Y-101319565D01*
X3624786Y-101273608D01*
X3624322Y-101224057D01*
X3604931Y-101178456D01*
X3569565Y-101143747D01*
X3504377Y-101123075D01*
X202000Y-101009200D01*
X202000Y-95026268D01*
X1607145Y-92818183D01*
X1625082Y-92771990D01*
X1623976Y-92722450D01*
X1603996Y-92677103D01*
X1568183Y-92642855D01*
X1521990Y-92624918D01*
X1490260Y-92623374D01*
X202000Y-92722471D01*
X202000Y-87183327D01*
X1573000Y-87183327D01*
X1573000Y-88546673D01*
X2094730Y-89806240D01*
X3058760Y-90770270D01*
X4318327Y-91292000D01*
X5681673Y-91292000D01*
X6941240Y-90770270D01*
X7905270Y-89806240D01*
X8427000Y-88546673D01*
X8427000Y-87183327D01*
X7905270Y-85923760D01*
X6941240Y-84959730D01*
X5681673Y-84438000D01*
X4318327Y-84438000D01*
X3058760Y-84959730D01*
X2094730Y-85923760D01*
X1573000Y-87183327D01*
X202000Y-87183327D01*
X202000Y-78980172D01*
X2800028Y-77866731D01*
X2840891Y-77838701D01*
X2867917Y-77797167D01*
X2876991Y-77748452D01*
X2858902Y-77684659D01*
X608902Y-73934659D01*
X566560Y-73891839D01*
X202000Y-73667494D01*
X202000Y-71681409D01*
X969198Y-71873208D01*
X1018692Y-71875617D01*
X1065341Y-71858902D01*
X1102042Y-71825607D01*
X1123208Y-71780802D01*
X1126930Y-71754231D01*
X1376930Y-64254231D01*
X1368887Y-64205335D01*
X1342744Y-64163239D01*
X1302483Y-64134352D01*
X1254231Y-64123070D01*
X1193204Y-64136408D01*
X202000Y-64632010D01*
X202000Y-63558327D01*
X1573000Y-63558327D01*
X1573000Y-64921673D01*
X2094730Y-66181240D01*
X3058760Y-67145270D01*
X4318327Y-67667000D01*
X5681673Y-67667000D01*
X6941240Y-67145270D01*
X7905270Y-66181240D01*
X8427000Y-64921673D01*
X8427000Y-63558327D01*
X7905270Y-62298760D01*
X6941240Y-61334730D01*
X5681673Y-60813000D01*
X4318327Y-60813000D01*
X3058760Y-61334730D01*
X2094730Y-62298760D01*
X1573000Y-63558327D01*
X202000Y-63558327D01*
X202000Y-48205822D01*
X2476992Y-48624899D01*
X2526540Y-48624196D01*
X2572048Y-48604585D01*
X2606587Y-48569053D01*
X2624899Y-48523008D01*
X2624196Y-48473460D01*
X2604585Y-48427952D01*
X2586654Y-48407156D01*
X202000Y-46181479D01*
X202000Y-39933327D01*
X1573000Y-39933327D01*
X1573000Y-41296673D01*
X2094730Y-42556240D01*
X3058760Y-43520270D01*
X4318327Y-44042000D01*
X5681673Y-44042000D01*
X6941240Y-43520270D01*
X7905270Y-42556240D01*
X8427000Y-41296673D01*
X8427000Y-39933327D01*
X7905270Y-38673760D01*
X6941240Y-37709730D01*
X5681673Y-37188000D01*
X4318327Y-37188000D01*
X3058760Y-37709730D01*
X2094730Y-38673760D01*
X1573000Y-39933327D01*
X202000Y-39933327D01*
X202000Y-38291554D01*
X2349574Y-35578829D01*
X2372161Y-35534724D01*
X2376150Y-35485331D01*
X2360934Y-35438172D01*
X2328829Y-35400426D01*
X2284724Y-35377839D01*
X2255287Y-35373110D01*
X202000Y-35287556D01*
X202000Y-28398591D01*
X2049484Y-27616963D01*
X2090477Y-27589123D01*
X2117696Y-27547715D01*
X2126996Y-27499042D01*
X2113592Y-27443204D01*
X644770Y-24505561D01*
X2108902Y-22065341D01*
X2125617Y-22018692D01*
X2123748Y-21971443D01*
X816876Y-16308327D01*
X1573000Y-16308327D01*
X1573000Y-17671673D01*
X2094730Y-18931240D01*
X3058760Y-19895270D01*
X4318327Y-20417000D01*
X5681673Y-20417000D01*
X6941240Y-19895270D01*
X7905270Y-18931240D01*
X8427000Y-17671673D01*
X8427000Y-16308327D01*
X7905270Y-15048760D01*
X6941240Y-14084730D01*
X5681673Y-13563000D01*
X4318327Y-13563000D01*
X3058760Y-14084730D01*
X2094730Y-15048760D01*
X1573000Y-16308327D01*
X816876Y-16308327D01*
X623748Y-15471443D01*
X596426Y-15417349D01*
X202000Y-14957185D01*
X202000Y-9678418D01*
X520879Y-9625272D01*
X567229Y-9607746D01*
X603344Y-9573817D01*
X626561Y-9510547D01*
X876561Y-6510547D01*
X870963Y-6461311D01*
X831303Y-6402436D01*
X202000Y-5878017D01*
X202000Y-2864696D01*
X3073000Y-2864696D01*
X3073000Y-3631304D01*
X3366368Y-4339558D01*
X3908442Y-4881632D01*
X4616696Y-5175000D01*
X5383304Y-5175000D01*
X6091558Y-4881632D01*
X6633632Y-4339558D01*
X6927000Y-3631304D01*
X6927000Y-2864696D01*
X6633632Y-2156442D01*
X6091558Y-1614368D01*
X5383304Y-1321000D01*
X4616696Y-1321000D01*
X3908442Y-1614368D01*
X3366368Y-2156442D01*
X3073000Y-2864696D01*
X202000Y-2864696D01*
X202000Y-202000D01*
X9798000Y-202000D01*
X9798000Y-849653D01*
G36*
X-201999Y-122793578D02*
X-3498255Y-120282145D01*
X-201999Y-118899844D01*
X-201999Y-122793578D01*
X-201999Y-122793578D01*
G37*
X-201999Y-122793578D02*
X-3498255Y-120282145D01*
X-201999Y-118899844D01*
X-201999Y-122793578D01*
G36*
X13618622Y-108566076D02*
X13124858Y-116466304D01*
X12136408Y-118443204D01*
X12123323Y-118509048D01*
X12364892Y-121891011D01*
X10202000Y-122199996D01*
X10202000Y-106345271D01*
X13618622Y-108566076D01*
X13618622Y-108566076D01*
G37*
X13618622Y-108566076D02*
X13124858Y-116466304D01*
X12136408Y-118443204D01*
X12123323Y-118509048D01*
X12364892Y-121891011D01*
X10202000Y-122199996D01*
X10202000Y-106345271D01*
X13618622Y-108566076D01*
G36*
X-201999Y-112914271D02*
X-3036001Y-110275718D01*
X-201999Y-108688677D01*
X-201999Y-112914271D01*
X-201999Y-112914271D01*
G37*
X-201999Y-112914271D02*
X-3036001Y-110275718D01*
X-201999Y-108688677D01*
X-201999Y-112914271D01*
G36*
X15428576Y-106012353D02*
X10202000Y-105315476D01*
X10202000Y-103610953D01*
X15428576Y-106012353D01*
X15428576Y-106012353D01*
G37*
X15428576Y-106012353D02*
X10202000Y-105315476D01*
X10202000Y-103610953D01*
X15428576Y-106012353D01*
G36*
X-201999Y-105494746D02*
X-1720624Y-104963227D01*
X-201999Y-103927801D01*
X-201999Y-105494746D01*
X-201999Y-105494746D01*
G37*
X-201999Y-105494746D02*
X-1720624Y-104963227D01*
X-201999Y-103927801D01*
X-201999Y-105494746D01*
G36*
X15603439Y-103591172D02*
X10202000Y-102510884D01*
X10202000Y-96183551D01*
X14158995Y-91313403D01*
X15603439Y-103591172D01*
X15603439Y-103591172D01*
G37*
X15603439Y-103591172D02*
X10202000Y-102510884D01*
X10202000Y-96183551D01*
X14158995Y-91313403D01*
X15603439Y-103591172D01*
G36*
X-201999Y-100995269D02*
X-3523568Y-100880732D01*
X-201999Y-95661124D01*
X-201999Y-100995269D01*
X-201999Y-100995269D01*
G37*
X-201999Y-100995269D02*
X-3523568Y-100880732D01*
X-201999Y-95661124D01*
X-201999Y-100995269D01*
G36*
X17872051Y-81217608D02*
X10202000Y-94499891D01*
X10202000Y-72916466D01*
X17626732Y-72386128D01*
X17872051Y-81217608D01*
X17872051Y-81217608D01*
G37*
X17872051Y-81217608D02*
X10202000Y-94499891D01*
X10202000Y-72916466D01*
X17626732Y-72386128D01*
X17872051Y-81217608D01*
G36*
X-201999Y-92753548D02*
X-4940230Y-93118027D01*
X-7093961Y-90246385D01*
X-2894980Y-84071413D01*
X-2875646Y-84025788D01*
X-2875243Y-83976237D01*
X-2893833Y-83930303D01*
X-2928587Y-83894980D01*
X-2974212Y-83875646D01*
X-3023763Y-83875243D01*
X-3076200Y-83898400D01*
X-4004317Y-84594488D01*
X-7484481Y-82274378D01*
X-201999Y-79153314D01*
X-201999Y-92753548D01*
X-201999Y-92753548D01*
G37*
X-201999Y-92753548D02*
X-4940230Y-93118027D01*
X-7093961Y-90246385D01*
X-2894980Y-84071413D01*
X-2875646Y-84025788D01*
X-2875243Y-83976237D01*
X-2893833Y-83930303D01*
X-2928587Y-83894980D01*
X-2974212Y-83875646D01*
X-3023763Y-83875243D01*
X-3076200Y-83898400D01*
X-4004317Y-84594488D01*
X-7484481Y-82274378D01*
X-201999Y-79153314D01*
X-201999Y-92753548D01*
G36*
X-201999Y-71580409D02*
X-201999Y-73418879D01*
X-5233603Y-70322508D01*
X-201999Y-71580409D01*
X-201999Y-71580409D01*
G37*
X-201999Y-71580409D02*
X-201999Y-73418879D01*
X-5233603Y-70322508D01*
X-201999Y-71580409D01*
G36*
X12024752Y-69017560D02*
X10202000Y-70475761D01*
X10202000Y-67975987D01*
X12024752Y-69017560D01*
X12024752Y-69017560D01*
G37*
X12024752Y-69017560D02*
X10202000Y-70475761D01*
X10202000Y-67975987D01*
X12024752Y-69017560D01*
G36*
X-202000Y-48131401D02*
X-201999Y-64834010D01*
X-4643657Y-67054839D01*
X-6855135Y-46905823D01*
X-202000Y-48131401D01*
X-202000Y-48131401D01*
G37*
X-202000Y-48131401D02*
X-201999Y-64834010D01*
X-4643657Y-67054839D01*
X-6855135Y-46905823D01*
X-202000Y-48131401D01*
G36*
X12307635Y-63505819D02*
X10202000Y-65471079D01*
X10202000Y-61766381D01*
X12307635Y-63505819D01*
X12307635Y-63505819D01*
G37*
X12307635Y-63505819D02*
X10202000Y-65471079D01*
X10202000Y-61766381D01*
X12307635Y-63505819D01*
G36*
X14005905Y-52782637D02*
X10202000Y-55825761D01*
X10202000Y-51134278D01*
X14005905Y-52782637D01*
X14005905Y-52782637D01*
G37*
X14005905Y-52782637D02*
X10202000Y-55825761D01*
X10202000Y-51134278D01*
X14005905Y-52782637D01*
G36*
X11627237Y-25554246D02*
X12622352Y-36998064D01*
X11629960Y-45433393D01*
X10202000Y-46575761D01*
X10202000Y-24010239D01*
X11627237Y-25554246D01*
X11627237Y-25554246D01*
G37*
X11627237Y-25554246D02*
X12622352Y-36998064D01*
X11629960Y-45433393D01*
X10202000Y-46575761D01*
X10202000Y-24010239D01*
X11627237Y-25554246D01*
G36*
X-202000Y-45804412D02*
X-1140780Y-44928217D01*
X-2356711Y-41523610D01*
X-202000Y-38801869D01*
X-202000Y-45804412D01*
X-202000Y-45804412D01*
G37*
X-202000Y-45804412D02*
X-1140780Y-44928217D01*
X-2356711Y-41523610D01*
X-202000Y-38801869D01*
X-202000Y-45804412D01*
G36*
X-202000Y-35270723D02*
X-3639958Y-35127475D01*
X-4359792Y-30328580D01*
X-202000Y-28569514D01*
X-202000Y-35270723D01*
X-202000Y-35270723D01*
G37*
X-202000Y-35270723D02*
X-3639958Y-35127475D01*
X-4359792Y-30328580D01*
X-202000Y-28569514D01*
X-202000Y-35270723D01*
G36*
X13370617Y-9064455D02*
X13124454Y-15957016D01*
X10202000Y-20015980D01*
X10202000Y-6846423D01*
X13370617Y-9064455D01*
X13370617Y-9064455D01*
G37*
X13370617Y-9064455D02*
X13124454Y-15957016D01*
X10202000Y-20015980D01*
X10202000Y-6846423D01*
X13370617Y-9064455D01*
G36*
X-202000Y-14485852D02*
X-3757075Y-10338264D01*
X-202000Y-9745752D01*
X-202000Y-14485852D01*
X-202000Y-14485852D01*
G37*
X-202000Y-14485852D02*
X-3757075Y-10338264D01*
X-202000Y-9745752D01*
X-202000Y-14485852D01*
G36*
X10329134Y876533D02*
X10111301Y168574D01*
X10078816Y190279D01*
X10019893Y202000D01*
X10019892Y202000D01*
X10000000Y205957D01*
X9980107Y202000D01*
X19892Y202000D01*
X0Y205957D01*
X-19893Y202000D01*
X-78816Y190279D01*
X-145634Y145634D01*
X-190279Y78816D01*
X-205957Y0D01*
X-202000Y-19893D01*
X-202000Y-5541350D01*
X-2114254Y-3947805D01*
X-1390184Y1120685D01*
X10329134Y876533D01*
X10329134Y876533D01*
G37*
X10329134Y876533D02*
X10111301Y168574D01*
X10078816Y190279D01*
X10019893Y202000D01*
X10019892Y202000D01*
X10000000Y205957D01*
X9980107Y202000D01*
X19892Y202000D01*
X0Y205957D01*
X-19893Y202000D01*
X-78816Y190279D01*
X-145634Y145634D01*
X-190279Y78816D01*
X-205957Y0D01*
X-202000Y-19893D01*
X-202000Y-5541350D01*
X-2114254Y-3947805D01*
X-1390184Y1120685D01*
X10329134Y876533D01*
M02*
